# Blender v2.91.2 OBJ File: 'Bombardier3.blend'
# www.blender.org
mtllib Bombardier.mtl
o Cube_Cube.001
v 0.959130 0.804226 0.801179
v 2.633963 -2.037617 4.292672
v 1.514800 -0.381315 4.519729
v 4.340324 0.092215 7.697759
v 1.604944 -0.496606 6.839514
v 5.970563 -2.181366 5.703387
v 3.574938 0.908347 6.578387
v 4.860899 -0.345534 7.651407
v 2.357893 -0.731888 0.182681
v 1.590749 -1.369293 8.662190
v 5.792177 -0.462495 8.127899
v 4.641303 0.474757 8.127899
v 2.327116 -1.139048 8.234184
v 5.476050 -0.403576 8.135048
v 4.589280 0.328106 8.166994
v 3.490935 -0.413540 1.495880
v 3.524467 -1.380727 1.495880
v 3.025644 -0.722361 0.265489
v 4.194363 -0.411114 1.238316
v 4.226529 -1.378301 1.228843
v 3.237870 -0.720096 0.264865
v 4.778200 0.421101 0.805468
v 4.806393 -2.329753 0.787315
v 3.755858 -0.673916 0.173594
v 5.247660 -0.021644 -0.031768
v 5.256698 -1.745753 -0.031768
v 4.247676 -0.730997 -0.031768
v 3.278115 0.841048 0.720401
v 3.213331 0.692471 0.377225
v 4.031446 0.938014 0.754764
v 3.459334 0.695118 0.377290
v 3.344958 -2.317306 0.733095
v 3.307549 -1.931340 0.512380
v 4.151161 -1.936669 0.942248
v 3.591888 -1.928118 0.512477
v 5.480505 0.431920 -0.271457
v 5.494926 -2.318933 -0.271457
v 3.885010 -0.699868 -0.271457
v 5.359208 0.195643 -0.271457
v 5.370824 -2.020344 -0.271457
v 4.073936 -0.716084 -0.271457
v 3.556980 0.776835 0.122372
v 3.140109 0.772358 0.122372
v 3.278514 -0.717334 0.265262
v 2.985779 -0.724235 0.265262
v 3.703472 -2.007894 0.265262
v 3.241145 -2.013132 0.265262
v 3.509421 0.737031 0.126111
v 3.175772 0.733452 0.126153
v 3.195064 -0.723000 0.511679
v 3.067628 -0.720392 0.512836
v 3.649125 -1.969039 0.265262
v 3.273487 -1.973295 0.265262
v -0.959130 0.804226 0.801179
v -2.633963 -2.037617 4.292672
v -1.514800 -0.381315 4.519729
v -4.340324 0.092215 7.697759
v 0.000000 0.191161 -1.615797
v 0.000000 0.076298 4.989299
v 0.000000 -0.423869 -3.657821
v 0.000000 -2.444311 -0.181571
v 0.000000 -1.960442 12.027101
v 0.000000 0.521989 7.652488
v 0.000000 0.414928 9.832393
v -1.604944 -0.496606 6.839514
v 0.000000 1.547507 1.209503
v -5.970563 -2.181366 5.703387
v -3.574938 0.908347 6.578387
v -4.860899 -0.345534 7.651407
v -2.357893 -0.731888 0.182681
v -1.590749 -1.369293 8.662190
v -5.792177 -0.462495 8.127899
v -4.641303 0.474757 8.127899
v -2.327116 -1.139048 8.234184
v -5.476050 -0.403576 8.135048
v -4.589280 0.328106 8.166994
v -3.490935 -0.413540 1.495880
v -3.524467 -1.380727 1.495880
v -3.025644 -0.722361 0.265489
v -4.194363 -0.411114 1.238316
v -4.226529 -1.378301 1.228843
v -3.237870 -0.720096 0.264865
v -4.778200 0.421101 0.805468
v -4.806393 -2.329753 0.787315
v -3.755858 -0.673916 0.173594
v -5.247660 -0.021644 -0.031768
v -5.256698 -1.745753 -0.031768
v -4.247676 -0.730997 -0.031768
v -3.278115 0.841048 0.720401
v -3.213331 0.692471 0.377225
v -4.031446 0.938014 0.754764
v -3.459334 0.695118 0.377290
v -3.344958 -2.317306 0.733095
v -3.307549 -1.931340 0.512380
v -4.151161 -1.936669 0.942248
v -3.591888 -1.928118 0.512477
v -5.480505 0.431920 -0.271457
v -5.494926 -2.318933 -0.271457
v -3.885010 -0.699868 -0.271457
v -5.359208 0.195643 -0.271457
v -5.370824 -2.020344 -0.271457
v -4.073936 -0.716084 -0.271457
v -3.556980 0.776835 0.122372
v -3.140109 0.772358 0.122372
v -3.278514 -0.717334 0.265262
v -2.985779 -0.724235 0.265262
v -3.703472 -2.007894 0.265262
v -3.241145 -2.013132 0.265262
v -3.509421 0.737031 0.126111
v -3.175772 0.733452 0.126153
v -3.195064 -0.723000 0.511679
v -3.067628 -0.720392 0.512836
v -3.649125 -1.969039 0.265262
v -3.273487 -1.973295 0.265262
vt 0.625000 0.626213
vt 0.612716 0.681023
vt 0.625000 0.671433
vt 0.592629 0.595603
vt 0.250000 0.618324
vt 0.250000 0.540803
vt 0.370584 0.646506
vt 0.250000 0.671433
vt 0.667251 0.617355
vt 0.674294 0.624532
vt 0.540869 0.659275
vt 0.375000 0.671433
vt 0.321276 0.684812
vt 0.498529 0.691663
vt 0.750000 0.540803
vt 0.412009 0.672994
vt 0.563349 0.674475
vt 0.236105 0.685471
vt 0.283527 0.683877
vt 0.337563 0.682471
vt 0.429238 0.673515
vt 0.443279 0.674074
vt 0.541961 0.675197
vt 0.625000 0.618324
vt 0.606983 0.605678
vt 0.625000 0.618324
vt 0.375000 0.618324
vt 0.592629 0.595603
vt 0.592629 0.595603
vt 0.625000 0.618324
vt 0.592629 0.595603
vt 0.375000 0.618324
vt 0.375000 0.618324
vt 0.375000 0.618324
vt 0.614786 0.611155
vt 0.606983 0.605678
vt 0.592629 0.595603
vt 0.422727 0.613341
vt 0.460261 0.609422
vt 0.375000 0.618324
vt 0.460261 0.609422
vt 0.592251 0.595642
vt 0.468556 0.608556
vt 0.592824 0.595582
vt 0.407530 0.616585
vt 0.625000 0.618324
vt 0.582843 0.598282
vt 0.608920 0.616585
vt 0.437444 0.614986
vt 0.573844 0.600746
vt 0.594133 0.614986
vt 0.606605 0.605413
vt 0.592445 0.595622
vt 0.606606 0.605413
vt 0.464297 0.609001
vt 0.464302 0.609000
vt 0.592724 0.595593
vt 0.606204 0.605134
vt 0.606208 0.605134
vt 0.468548 0.608557
vt 0.625000 0.618324
vt 0.625000 0.626213
vt 0.625000 0.671433
vt 0.612716 0.681023
vt 0.592629 0.595603
vt 0.370584 0.646506
vt 0.667251 0.617355
vt 0.375000 0.671433
vt 0.321276 0.684812
vt 0.498529 0.691663
vt 0.412009 0.672994
vt 0.563349 0.674475
vt 0.283527 0.683877
vt 0.236105 0.685471
vt 0.337563 0.682471
vt 0.443279 0.674074
vt 0.429238 0.673515
vt 0.541961 0.675197
vt 0.625000 0.618324
vt 0.625000 0.618324
vt 0.606983 0.605678
vt 0.375000 0.618324
vt 0.592629 0.595603
vt 0.592629 0.595603
vt 0.625000 0.618324
vt 0.592629 0.595603
vt 0.375000 0.618324
vt 0.375000 0.618324
vt 0.375000 0.618324
vt 0.614786 0.611155
vt 0.606983 0.605678
vt 0.592629 0.595603
vt 0.422727 0.613341
vt 0.375000 0.618324
vt 0.460261 0.609422
vt 0.460261 0.609422
vt 0.592251 0.595642
vt 0.592824 0.595582
vt 0.468556 0.608556
vt 0.407530 0.616585
vt 0.625000 0.618324
vt 0.582843 0.598282
vt 0.608920 0.616585
vt 0.437444 0.614986
vt 0.573844 0.600746
vt 0.594133 0.614986
vt 0.606605 0.605413
vt 0.592445 0.595622
vt 0.606606 0.605413
vt 0.464297 0.609001
vt 0.464302 0.609000
vt 0.592724 0.595593
vt 0.606204 0.605134
vt 0.606208 0.605134
vt 0.468548 0.608557
vt 0.625000 0.618324
vt 0.368401 0.695291
vt 0.433990 0.682121
vt 0.589252 0.673484
vt 0.556917 0.700390
vt 0.347016 0.682119
vt 0.589252 0.673484
vt 0.556917 0.700390
vt 0.347016 0.682119
vn -0.5740 0.8165 0.0629
vn 0.5765 -0.7064 -0.4106
vn 0.0867 -0.9955 0.0395
vn 0.6592 0.7008 0.2728
vn -0.0413 -0.9991 -0.0041
vn 0.3846 0.8609 0.3331
vn -0.5067 0.7791 0.3691
vn 0.4574 0.8017 -0.3849
vn 0.2419 -0.7831 0.5730
vn 0.5921 -0.7557 -0.2799
vn 0.4869 0.4330 -0.7585
vn 0.6672 0.6299 -0.3975
vn 0.4948 -0.7422 0.4520
vn -0.2009 0.9092 0.3646
vn -0.4908 -0.6456 0.5850
vn 0.8083 -0.1097 -0.5785
vn -0.2014 -0.9374 -0.2843
vn -0.1249 0.9740 -0.1890
vn -0.6421 0.7316 -0.2290
vn -0.8484 -0.5288 0.0254
vn 0.5849 0.0115 0.8110
vn -0.6422 -0.6385 -0.4241
vn -0.0107 0.9937 -0.1117
vn -0.9703 0.1201 0.2101
vn 0.4620 -0.8604 -0.2150
vn 0.7708 0.2538 -0.5843
vn -0.9753 0.0070 0.2209
vn -0.0091 -0.0014 -1.0000
vn 0.0000 0.0000 -1.0000
vn -0.9050 -0.0047 -0.4255
vn 0.6417 0.6381 -0.4255
vn 0.5236 -0.7381 -0.4255
vn 0.0010 -0.0947 -0.9955
vn 0.0164 -0.0978 -0.9951
vn 0.0017 -0.0952 -0.9955
vn 0.0056 0.0013 -1.0000
vn 0.0106 -0.9866 -0.1625
vn -0.9721 0.1654 -0.1666
vn 0.9793 -0.1168 -0.1656
vn -0.0111 0.9861 -0.1659
vn -0.9367 -0.3085 -0.1658
vn 0.9674 0.1917 -0.1657
vn -0.2190 0.9636 -0.1534
vn -0.5099 -0.6430 0.5714
vn 0.5423 -0.8302 0.1296
vn 0.7441 -0.1996 -0.6375
vn 0.0756 -0.8656 -0.4949
vn 0.7934 0.4858 0.3667
vn -0.7662 0.6218 0.1621
vn -0.5428 0.7652 -0.3463
vn -0.0287 -0.8373 -0.5461
vn 0.6068 0.0010 0.7948
vn -0.7933 -0.5762 -0.1966
vn -0.1188 0.9798 -0.1606
vn -0.9289 0.0676 0.3642
vn -0.0110 -0.0944 -0.9955
vn 0.0095 -0.8374 -0.5465
vn 0.8125 0.1756 -0.5558
vn -0.9327 -0.1848 0.3097
vn 0.0009 -0.0959 -0.9954
vn 0.0017 -0.0955 -0.9954
vn 0.0102 -0.0963 -0.9953
vn 0.0096 0.0028 -1.0000
vn 0.0107 -0.9866 -0.1626
vn -0.9721 0.1653 -0.1663
vn 0.9793 -0.1169 -0.1653
vn -0.0112 0.9861 -0.1658
vn -0.9366 -0.3085 -0.1661
vn 0.9673 0.1917 -0.1659
vn 0.5740 0.8165 0.0629
vn -0.5765 -0.7064 -0.4106
vn -0.0867 -0.9955 0.0395
vn -0.6592 0.7008 0.2728
vn 0.0413 -0.9991 -0.0041
vn -0.3846 0.8609 0.3331
vn 0.5067 0.7791 0.3691
vn -0.4574 0.8017 -0.3849
vn -0.2419 -0.7831 0.5730
vn -0.5921 -0.7557 -0.2799
vn -0.4869 0.4330 -0.7585
vn -0.6672 0.6299 -0.3975
vn -0.4948 -0.7422 0.4520
vn 0.2009 0.9092 0.3646
vn 0.4908 -0.6456 0.5850
vn -0.8083 -0.1097 -0.5785
vn 0.2014 -0.9374 -0.2843
vn 0.1249 0.9740 -0.1890
vn 0.6421 0.7316 -0.2290
vn 0.8484 -0.5288 0.0254
vn -0.5849 0.0115 0.8110
vn 0.6422 -0.6385 -0.4241
vn 0.0107 0.9937 -0.1117
vn 0.9703 0.1201 0.2101
vn -0.4620 -0.8604 -0.2150
vn -0.7708 0.2538 -0.5843
vn 0.9753 0.0070 0.2209
vn 0.0091 -0.0014 -1.0000
vn 0.9050 -0.0047 -0.4255
vn -0.6417 0.6381 -0.4255
vn -0.5236 -0.7381 -0.4255
vn -0.0010 -0.0947 -0.9955
vn -0.0164 -0.0978 -0.9951
vn -0.0017 -0.0952 -0.9955
vn -0.0056 0.0013 -1.0000
vn -0.0106 -0.9866 -0.1625
vn 0.9721 0.1654 -0.1666
vn -0.9793 -0.1168 -0.1656
vn 0.0111 0.9861 -0.1659
vn 0.9367 -0.3085 -0.1658
vn -0.9674 0.1917 -0.1657
vn 0.2190 0.9636 -0.1534
vn 0.5099 -0.6430 0.5714
vn -0.5423 -0.8302 0.1296
vn -0.7441 -0.1996 -0.6375
vn -0.0756 -0.8656 -0.4949
vn -0.7934 0.4858 0.3667
vn 0.7662 0.6218 0.1621
vn 0.5428 0.7652 -0.3463
vn 0.0287 -0.8373 -0.5461
vn -0.6068 0.0010 0.7948
vn 0.7933 -0.5762 -0.1966
vn 0.1188 0.9798 -0.1606
vn 0.9289 0.0676 0.3642
vn 0.0110 -0.0944 -0.9955
vn -0.0095 -0.8374 -0.5465
vn -0.8125 0.1756 -0.5558
vn 0.9327 -0.1848 0.3097
vn -0.0009 -0.0959 -0.9954
vn -0.0017 -0.0955 -0.9954
vn -0.0102 -0.0963 -0.9953
vn -0.0096 0.0028 -1.0000
vn -0.0107 -0.9866 -0.1626
vn 0.9721 0.1653 -0.1663
vn -0.9793 -0.1169 -0.1653
vn 0.0112 0.9861 -0.1658
vn 0.9366 -0.3085 -0.1661
vn -0.9673 0.1917 -0.1659
vn 0.7930 0.4135 0.4475
vn 0.7547 0.6493 0.0942
vn 0.3555 0.4994 -0.7900
vn 0.5862 0.6988 -0.4099
vn 0.7564 0.6533 0.0321
vn 0.3158 -0.4667 0.8261
vn 0.3438 0.0119 0.9390
vn 0.8376 0.0044 0.5463
vn -0.1046 0.5100 0.8538
vn 0.1047 -0.6400 0.7612
vn 0.3555 0.0027 0.9347
vn 0.8383 0.0050 0.5452
vn 0.3205 0.3537 0.8787
vn -0.7930 0.4135 0.4475
vn -0.7547 0.6493 0.0942
vn -0.3555 0.4994 -0.7900
vn -0.5862 0.6988 -0.4099
vn -0.7564 0.6533 0.0321
vn -0.3158 -0.4667 0.8261
vn -0.3438 0.0119 0.9390
vn -0.8376 0.0044 0.5463
vn 0.1046 0.5100 0.8538
vn -0.1047 -0.6400 0.7612
vn -0.3555 0.0027 0.9347
vn -0.8383 0.0050 0.5452
vn -0.3205 0.3537 0.8787
vn 0.3476 0.9071 0.2373
vn 0.5112 0.8229 -0.2479
vn -0.0015 0.9967 -0.0809
vn 0.6210 0.7051 0.3424
vn 0.2396 0.9576 -0.1602
vn 0.6170 0.7577 -0.2126
vn -0.3881 0.7829 0.4862
vn 0.0686 0.2510 0.9656
vn 0.1907 0.1891 0.9632
vn -0.2211 0.9653 0.1389
vn 0.0293 0.0360 0.9989
vn 0.0172 0.2518 0.9676
vn -0.3476 0.9071 0.2373
vn -0.5112 0.8229 -0.2479
vn 0.0015 0.9967 -0.0809
vn -0.6210 0.7051 0.3424
vn -0.2396 0.9576 -0.1602
vn -0.6170 0.7577 -0.2126
vn 0.3881 0.7829 0.4862
vn -0.0686 0.2510 0.9656
vn -0.1907 0.1891 0.9632
vn 0.2211 0.9653 0.1389
vn -0.0293 0.0360 0.9989
vn -0.0172 0.2518 0.9676
vn 0.0013 -0.0946 -0.9955
vn 0.1870 0.1191 0.9751
vn 0.0003 -0.0005 -1.0000
vn -0.0013 -0.0946 -0.9955
vn -0.1870 0.1191 0.9751
vn -0.0003 -0.0005 -1.0000
vn 0.5432 0.8394 0.0206
vn 0.8369 0.0290 0.5466
vn -0.5432 0.8394 0.0206
vn -0.8369 0.0290 0.5466
usemtl Material
s off
f 3/1/1 5/2/1 7/3/1
f 9/4/2 61/5/2 60/6/2
f 2/7/3 62/8/3 61/5/3
f 1/9/4 66/10/4 59/11/4
f 2/7/5 6/12/5 62/8/5
f 62/8/6 6/12/6 10/13/6
f 10/14/7 7/3/7 5/2/7
f 1/9/8 58/15/8 66/10/8
f 11/16/9 10/13/9 6/12/9
f 61/5/10 9/4/10 2/7/10
f 2/7/11 3/1/11 7/3/11
f 11/16/12 6/12/12 7/3/12
f 15/17/13 10/18/13 13/19/13
f 13/20/14 14/21/14 8/22/14
f 8/22/15 15/17/15 4/23/15
f 19/24/16 42/25/16 30/26/16
f 9/4/17 17/27/17 2/7/17
f 19/24/18 24/28/18 44/29/18
f 22/30/19 38/31/19 24/28/19
f 20/32/20 24/28/20 23/33/20
f 20/32/21 22/30/21 19/24/21
f 23/33/22 38/31/22 37/34/22
f 28/35/23 42/25/23 43/36/23
f 45/37/24 28/35/24 43/36/24
f 32/38/25 46/39/25 34/40/25
f 20/32/26 46/39/26 44/29/26
f 17/27/27 47/41/27 32/38/27
f 50/42/28 33/43/28 51/44/28
f 40/45/29 36/46/29 37/34/29
f 40/45/29 38/31/29 41/47/29
f 39/48/29 38/31/29 36/46/29
f 26/49/30 39/48/30 40/45/30
f 26/49/31 41/47/31 27/50/31
f 25/51/32 41/47/32 39/48/32
f 48/52/33 43/36/33 42/25/33
f 48/52/34 44/29/34 21/53/34
f 49/54/35 45/37/35 43/36/35
f 52/55/29 47/41/29 53/56/29
f 52/55/29 44/29/29 46/39/29
f 53/56/36 45/37/36 18/57/36
f 31/58/37 49/54/37 48/52/37
f 31/58/38 21/53/38 50/42/38
f 29/59/39 18/57/39 49/54/39
f 35/60/40 53/56/40 33/43/40
f 35/60/41 21/53/41 52/55/41
f 33/43/42 18/57/42 51/44/42
f 3/1/43 16/61/43 45/37/43
f 8/22/44 14/21/44 15/17/44
f 13/20/45 4/23/45 15/17/45
f 19/24/46 44/29/46 42/25/46
f 9/4/47 45/37/47 17/27/47
f 3/1/48 2/7/48 17/27/48
f 19/24/49 22/30/49 24/28/49
f 22/30/50 36/46/50 38/31/50
f 20/32/51 44/29/51 24/28/51
f 20/32/52 23/33/52 22/30/52
f 23/33/53 24/28/53 38/31/53
f 28/35/54 30/26/54 42/25/54
f 45/37/55 16/61/55 28/35/55
f 50/42/56 51/44/56 29/59/56
f 32/38/57 47/41/57 46/39/57
f 20/32/58 34/40/58 46/39/58
f 17/27/59 45/37/59 47/41/59
f 40/45/29 39/48/29 36/46/29
f 40/45/29 37/34/29 38/31/29
f 39/48/29 41/47/29 38/31/29
f 26/49/30 25/51/30 39/48/30
f 26/49/31 40/45/31 41/47/31
f 25/51/32 27/50/32 41/47/32
f 48/52/60 49/54/60 43/36/60
f 48/52/61 42/25/61 44/29/61
f 49/54/62 18/57/62 45/37/62
f 52/55/29 46/39/29 47/41/29
f 52/55/63 21/53/63 44/29/63
f 53/56/29 47/41/29 45/37/29
f 31/58/64 29/59/64 49/54/64
f 31/58/65 48/52/65 21/53/65
f 29/59/66 51/44/66 18/57/66
f 35/60/67 52/55/67 53/56/67
f 35/60/68 50/42/68 21/53/68
f 33/43/69 53/56/69 18/57/69
f 56/62/70 68/63/70 65/64/70
f 70/65/71 60/6/71 61/5/71
f 55/66/72 61/5/72 62/8/72
f 54/67/73 59/11/73 66/10/73
f 55/66/74 62/8/74 67/68/74
f 62/8/75 71/69/75 67/68/75
f 71/70/76 65/64/76 68/63/76
f 54/67/77 66/10/77 58/15/77
f 72/71/78 67/68/78 71/69/78
f 61/5/79 55/66/79 70/65/79
f 55/66/80 68/63/80 56/62/80
f 72/71/81 68/63/81 67/68/81
f 76/72/82 74/73/82 71/74/82
f 74/75/83 69/76/83 75/77/83
f 69/76/84 57/78/84 76/72/84
f 80/79/85 91/80/85 103/81/85
f 70/65/86 55/66/86 78/82/86
f 80/79/87 105/83/87 85/84/87
f 83/85/88 85/84/88 99/86/88
f 81/87/89 84/88/89 85/84/89
f 81/87/90 80/79/90 83/85/90
f 84/88/91 98/89/91 99/86/91
f 89/90/92 104/91/92 103/81/92
f 106/92/93 104/91/93 89/90/93
f 93/93/94 95/94/94 107/95/94
f 81/87/95 105/83/95 107/95/95
f 78/82/96 93/93/96 108/96/96
f 111/97/97 112/98/97 94/99/97
f 101/100/29 98/89/29 97/101/29
f 101/100/29 102/102/29 99/86/29
f 100/103/29 97/101/29 99/86/29
f 87/104/98 101/100/98 100/103/98
f 87/104/99 88/105/99 102/102/99
f 86/106/100 100/103/100 102/102/100
f 109/107/101 103/81/101 104/91/101
f 109/107/102 82/108/102 105/83/102
f 110/109/103 104/91/103 106/92/103
f 113/110/29 114/111/29 108/96/29
f 113/110/29 107/95/29 105/83/29
f 114/111/104 79/112/104 106/92/104
f 92/113/105 109/107/105 110/109/105
f 92/113/106 111/97/106 82/108/106
f 90/114/107 110/109/107 79/112/107
f 96/115/108 94/99/108 114/111/108
f 96/115/109 113/110/109 82/108/109
f 94/99/110 112/98/110 79/112/110
f 56/62/111 106/92/111 77/116/111
f 69/76/112 76/72/112 75/77/112
f 74/75/113 76/72/113 57/78/113
f 80/79/114 103/81/114 105/83/114
f 70/65/115 78/82/115 106/92/115
f 56/62/116 78/82/116 55/66/116
f 80/79/117 85/84/117 83/85/117
f 83/85/118 99/86/118 97/101/118
f 81/87/119 85/84/119 105/83/119
f 81/87/120 83/85/120 84/88/120
f 84/88/121 99/86/121 85/84/121
f 89/90/122 103/81/122 91/80/122
f 106/92/123 89/90/123 77/116/123
f 111/97/124 90/114/124 112/98/124
f 93/93/125 107/95/125 108/96/125
f 81/87/126 107/95/126 95/94/126
f 78/82/127 108/96/127 106/92/127
f 101/100/29 97/101/29 100/103/29
f 101/100/29 99/86/29 98/89/29
f 100/103/29 99/86/29 102/102/29
f 87/104/98 100/103/98 86/106/98
f 87/104/99 102/102/99 101/100/99
f 86/106/100 102/102/100 88/105/100
f 109/107/128 104/91/128 110/109/128
f 109/107/129 105/83/129 103/81/129
f 110/109/130 106/92/130 79/112/130
f 113/110/29 108/96/29 107/95/29
f 113/110/131 105/83/131 82/108/131
f 114/111/29 106/92/29 108/96/29
f 92/113/132 110/109/132 90/114/132
f 92/113/133 82/108/133 109/107/133
f 90/114/134 79/112/134 112/98/134
f 96/115/135 114/111/135 113/110/135
f 96/115/136 82/108/136 111/97/136
f 94/99/137 79/112/137 114/111/137
usemtl Material.001
f 62/8/138 10/13/138 64/117/138
f 9/4/139 1/9/139 3/1/139
f 2/7/140 7/3/140 6/12/140
f 58/15/141 1/9/141 9/4/141
f 10/14/142 63/118/142 64/117/142
f 17/27/143 34/40/143 20/32/143
f 17/27/144 19/24/144 16/61/144
f 22/30/145 37/34/145 36/46/145
f 16/61/146 30/26/146 28/35/146
f 17/27/147 32/38/147 34/40/147
f 17/27/148 20/32/148 19/24/148
f 22/30/149 23/33/149 37/34/149
f 16/61/150 19/24/150 30/26/150
f 62/8/151 64/117/151 71/69/151
f 70/65/152 56/62/152 54/67/152
f 55/66/153 67/68/153 68/63/153
f 58/15/154 70/65/154 54/67/154
f 71/70/155 64/117/155 63/118/155
f 78/82/156 81/87/156 95/94/156
f 78/82/157 77/116/157 80/79/157
f 83/85/158 97/101/158 98/89/158
f 77/116/159 89/90/159 91/80/159
f 78/82/160 95/94/160 93/93/160
f 78/82/161 80/79/161 81/87/161
f 83/85/162 98/89/162 84/88/162
f 77/116/163 91/80/163 80/79/163
usemtl Material.002
f 1/9/164 59/11/164 3/1/164
f 58/15/165 9/4/165 60/6/165
f 3/1/166 45/37/166 9/4/166
f 10/14/167 5/2/167 63/118/167
f 3/1/168 59/11/168 63/118/168
f 11/16/169 7/3/169 12/119/169
f 10/120/170 12/119/170 7/3/170
f 14/21/171 10/13/171 11/16/171
f 14/21/172 12/119/172 15/17/172
f 14/21/173 13/121/173 10/13/173
f 14/21/174 11/16/174 12/119/174
f 15/17/175 12/119/175 10/18/175
f 54/67/176 56/62/176 59/11/176
f 58/15/177 60/6/177 70/65/177
f 56/62/178 70/65/178 106/92/178
f 71/70/179 63/118/179 65/64/179
f 56/62/180 63/118/180 59/11/180
f 72/71/181 73/122/181 68/63/181
f 71/123/182 68/63/182 73/122/182
f 75/77/183 72/71/183 71/69/183
f 75/77/184 76/72/184 73/122/184
f 75/77/185 71/69/185 74/124/185
f 75/77/186 73/122/186 72/71/186
f 76/72/187 71/74/187 73/122/187
usemtl Material.003
f 27/50/29 25/51/29 26/49/29
f 50/42/188 29/59/188 31/58/188
f 13/20/189 8/22/189 4/23/189
f 50/42/190 35/60/190 33/43/190
f 88/105/29 87/104/29 86/106/29
f 111/97/191 92/113/191 90/114/191
f 74/75/192 57/78/192 69/76/192
f 111/97/193 94/99/193 96/115/193
usemtl Material.004
f 3/1/194 63/118/194 5/2/194
f 3/1/195 17/27/195 16/61/195
f 56/62/196 65/64/196 63/118/196
f 56/62/197 77/116/197 78/82/197
