# Blender v2.91.2 OBJ File: 'Nerotist3.blend'
# www.blender.org
mtllib Nerotist.mtl
o Cube_Cube.001
v 1.373690 0.449833 -1.887886
v 1.858601 -0.365559 -2.877413
v 2.896581 -0.261851 -0.331732
v 5.970563 -0.657019 2.307134
v 2.493358 -0.588647 6.197679
v 1.521745 0.944997 7.427498
v 0.313149 -0.167179 -5.867215
v 0.239249 0.164831 -6.210892
v 1.740596 0.938379 -0.331731
v 5.970563 0.657019 2.307134
v 2.493358 -0.196999 4.658169
v 2.493358 -0.657019 4.658169
v 0.706171 -0.299311 -5.370729
v 0.911462 -0.453033 -5.214693
v 0.239249 0.164831 -6.210892
v 0.329859 -0.477678 -5.575310
v 0.706171 -0.299311 -5.370729
v 6.257782 -0.208795 -0.797174
v 4.481776 -0.045453 -0.797174
v 3.034149 0.230905 -0.272396
v 6.257782 0.334361 -0.797174
v 3.267428 -0.657019 3.482652
v 1.403677 0.162589 3.482652
v 3.847341 0.708003 10.038737
v 3.847341 0.538915 10.038737
v 4.098004 0.920098 10.246432
v 4.098004 0.314667 10.246432
v 0.250664 0.137555 9.848063
v 0.250664 0.704583 9.848063
v 0.105480 0.876169 10.246432
v 0.105480 -0.024731 10.246432
v 3.992524 0.830848 10.246432
v 3.992524 0.409031 10.246432
v 2.315892 0.641164 2.307134
v 6.369725 -0.331506 -1.219753
v 3.739892 -0.089636 -1.219753
v 6.369725 0.472775 -1.219753
v 6.306029 -0.261683 -1.219753
v 4.162025 -0.064496 -1.219753
v 6.306029 0.394017 -1.219753
v -1.373690 0.449833 -1.887886
v -1.858601 -0.365559 -2.877413
v -2.896581 -0.261851 -0.331732
v -5.970563 -0.657019 2.307134
v -2.493358 -0.588647 6.197679
v -1.521745 0.944997 7.427498
v -0.313149 -0.167179 -5.867215
v -0.239249 0.164831 -6.210892
v 0.000000 -0.020273 -6.210892
v 0.000000 0.164831 -6.210892
v 0.000000 -0.484046 8.411621
v 0.000000 2.004307 10.923871
v -1.740596 0.938379 -0.331731
v -5.970563 0.657019 2.307134
v 0.000000 0.657019 -4.183503
v 0.000000 2.544532 1.078047
v 0.000000 -1.021200 -4.183503
v 0.000000 -0.261851 -0.331731
v 0.000000 -0.657019 2.307134
v -2.493358 -0.196999 4.658169
v -2.493358 -0.657019 4.658169
v 0.000000 2.267509 6.426344
v 0.000000 -0.657019 4.658169
v -0.706171 -0.299311 -5.370729
v 0.000000 -0.711242 -5.197197
v -0.911462 -0.453033 -5.214693
v -0.239249 0.164831 -6.210892
v -0.329859 -0.477678 -5.575310
v -0.706171 -0.299311 -5.370729
v -6.257782 -0.208795 -0.797174
v -4.481776 -0.045453 -0.797174
v -3.034149 0.230905 -0.272396
v -6.257782 0.334361 -0.797174
v -3.267428 -0.657019 3.482652
v -1.403677 0.162589 3.482652
v 0.000000 0.685904 3.482652
v 0.000000 -0.657019 3.482652
v -3.847341 0.708003 10.038737
v -3.847341 0.538915 10.038737
v 0.000000 -0.142637 10.246432
v 0.000000 1.000831 10.246432
v -4.098004 0.920098 10.246432
v -4.098004 0.314667 10.246432
v -0.250664 0.137555 9.848063
v -0.250664 0.704583 9.848063
v -0.105480 0.876169 10.246432
v -0.105480 -0.024731 10.246432
v -3.992524 0.830848 10.246432
v -3.992524 0.409031 10.246432
v -2.315892 0.641164 2.307134
v 0.000000 1.800672 -2.064177
v -6.369725 -0.331506 -1.219753
v -3.739892 -0.089636 -1.219753
v -6.369725 0.472775 -1.219753
v -6.306029 -0.261683 -1.219753
v -4.162025 -0.064496 -1.219753
v -6.306029 0.394017 -1.219753
vt 0.384221 0.552478
vt 0.250000 0.540803
vt 0.250000 0.520402
vt 0.550162 0.375000
vt 0.625000 0.500000
vt 0.625000 0.500000
vt 0.462520 0.718750
vt 0.375000 0.750000
vt 0.375000 0.718750
vt 0.625000 0.618324
vt 0.687500 0.671433
vt 0.625000 0.671433
vt 0.250000 0.718750
vt 0.250000 0.750000
vt 0.434312 0.567089
vt 0.250000 0.618324
vt 0.375000 0.618324
vt 0.250000 0.671433
vt 0.625570 0.587004
vt 0.625000 0.618324
vt 0.375000 0.618324
vt 0.750000 0.695092
vt 0.625000 0.695092
vt 0.250000 0.695092
vt 0.375000 0.695092
vt 0.302402 0.510920
vt 0.403762 0.512045
vt 0.403762 0.512045
vt 0.390078 0.503950
vt 0.429940 0.498031
vt 0.375000 0.671433
vt 0.375000 0.671433
vt 0.375000 0.750000
vt 0.250000 0.750000
vt 0.750000 0.750000
vt 0.462520 0.750000
vt 0.462520 0.750000
vt 0.388999 0.753217
vt 0.448494 0.753217
vt 0.380685 0.871783
vt 0.462520 0.875000
vt 0.456821 0.871783
vt 0.375000 0.875000
vt 0.448709 0.867354
vt 0.388766 0.867354
vt 0.407365 0.757646
vt 0.430082 0.757646
vt 0.625000 0.375000
vt 0.750000 0.733241
vt 0.625000 0.671433
vt 0.750000 0.750000
vt 0.394883 0.626849
vt 0.598698 0.670147
vt 0.394883 0.670147
vt 0.409943 0.633306
vt 0.578776 0.669172
vt 0.409943 0.669172
vt 0.384221 0.552478
vt 0.625000 0.500000
vt 0.625000 0.500000
vt 0.462520 0.718750
vt 0.375000 0.718750
vt 0.375000 0.750000
vt 0.625000 0.618324
vt 0.625000 0.671433
vt 0.687500 0.671433
vt 0.434312 0.567089
vt 0.375000 0.618324
vt 0.625570 0.587004
vt 0.375000 0.618324
vt 0.625000 0.618324
vt 0.625000 0.695092
vt 0.375000 0.695092
vt 0.302402 0.510920
vt 0.403762 0.512045
vt 0.403762 0.512045
vt 0.390078 0.503950
vt 0.375000 0.671433
vt 0.375000 0.671433
vt 0.375000 0.750000
vt 0.462520 0.750000
vt 0.462520 0.750000
vt 0.388999 0.753217
vt 0.448494 0.753217
vt 0.380685 0.871783
vt 0.456821 0.871783
vt 0.448709 0.867354
vt 0.388766 0.867354
vt 0.407365 0.757646
vt 0.430082 0.757646
vt 0.625000 0.671433
vt 0.394883 0.626849
vt 0.598698 0.670147
vt 0.394883 0.670147
vt 0.409943 0.633306
vt 0.578776 0.669172
vt 0.409943 0.669172
vt 0.750000 0.644895
vt 0.750000 0.603231
vt 0.750000 0.540803
vt 0.750000 0.500000
vn 0.2564 -0.9243 -0.2826
vn 0.0000 0.0000 1.0000
vn 1.0000 0.0000 0.0000
vn -0.0043 0.9936 0.1128
vn -0.0010 -0.9989 0.0460
vn 0.2057 -0.9601 0.1893
vn -0.0000 -0.9890 -0.1481
vn 0.6330 0.7204 -0.2835
vn 0.6856 0.6603 -0.3065
vn -0.7229 0.2780 -0.6326
vn 0.3491 0.9364 -0.0372
vn 0.0000 -1.0000 0.0000
vn 0.8352 0.0000 0.5500
vn -0.4847 -0.8513 -0.2009
vn 0.4558 -0.5892 -0.6672
vn 0.1535 -0.5954 -0.7886
vn -0.0911 -0.9906 -0.1017
vn 0.3988 0.0000 0.9170
vn 0.2926 0.7847 0.5465
vn 0.1091 -0.9773 0.1818
vn 0.2209 0.9559 -0.1935
vn 0.9395 0.0000 0.3424
vn -0.8196 0.0000 0.5729
vn -0.1205 0.8016 0.5855
vn -0.0198 -0.9208 0.3894
vn 0.4115 -0.9016 -0.1330
vn 0.0000 0.0000 -1.0000
vn 0.8788 0.4624 0.1176
vn 0.0000 -0.9990 0.0444
vn 0.6383 0.7685 0.0450
vn 0.0000 -0.9992 0.0407
vn 0.7382 0.0000 -0.6746
vn 0.8298 0.4987 -0.2506
vn 0.0961 0.0925 -0.9911
vn 0.4718 0.7767 -0.4173
vn 0.4008 0.9114 -0.0927
vn 0.4779 -0.8701 -0.1205
vn -0.1880 0.8793 -0.4376
vn 0.0206 -0.9850 -0.1715
vn 0.1838 0.4179 0.8897
vn 0.1130 -0.9783 0.1735
vn -0.0110 -0.5595 0.8288
vn -0.1042 0.9338 0.3424
vn -0.0100 -0.8576 0.5142
vn -0.0040 0.9273 0.3744
vn 0.0910 0.9894 -0.1134
vn -0.9935 0.0000 -0.1134
vn 0.2078 -0.9716 -0.1134
vn -0.0897 0.9940 -0.0621
vn -0.2564 -0.9243 -0.2826
vn -1.0000 0.0000 0.0000
vn 0.0043 0.9936 0.1128
vn 0.0010 -0.9989 0.0460
vn -0.2057 -0.9601 0.1893
vn -0.6330 0.7204 -0.2835
vn -0.6856 0.6603 -0.3065
vn 0.7229 0.2780 -0.6326
vn -0.3491 0.9364 -0.0372
vn -0.8352 0.0000 0.5500
vn 0.4847 -0.8513 -0.2009
vn -0.4558 -0.5892 -0.6672
vn -0.1535 -0.5954 -0.7886
vn 0.0911 -0.9906 -0.1017
vn -0.3988 0.0000 0.9170
vn -0.2926 0.7847 0.5465
vn -0.1091 -0.9773 0.1818
vn -0.2209 0.9559 -0.1935
vn -0.9395 0.0000 0.3424
vn 0.8196 0.0000 0.5729
vn 0.1205 0.8016 0.5855
vn 0.0198 -0.9208 0.3894
vn -0.4115 -0.9016 -0.1330
vn -0.8788 0.4624 0.1176
vn -0.6383 0.7685 0.0450
vn -0.7382 0.0000 -0.6746
vn -0.8298 0.4987 -0.2506
vn -0.0961 0.0925 -0.9911
vn -0.4718 0.7767 -0.4173
vn -0.4008 0.9114 -0.0927
vn -0.4779 -0.8701 -0.1205
vn 0.1880 0.8793 -0.4376
vn -0.0206 -0.9850 -0.1715
vn -0.1838 0.4179 0.8897
vn -0.1130 -0.9783 0.1735
vn 0.0110 -0.5595 0.8288
vn 0.1042 0.9338 0.3424
vn 0.0100 -0.8576 0.5142
vn 0.0040 0.9273 0.3744
vn -0.0910 0.9894 -0.1134
vn 0.9935 0.0000 -0.1134
vn -0.2078 -0.9716 -0.1134
vn 0.0897 0.9940 -0.0621
vn 0.4561 0.8127 -0.3627
vn 0.4103 0.7013 -0.5829
vn 0.7748 0.5002 0.3867
vn 0.7023 0.6928 -0.1640
vn 0.6796 0.6456 -0.3484
vn -0.4561 0.8127 -0.3627
vn -0.4103 0.7013 -0.5829
vn -0.7748 0.5002 0.3867
vn -0.7023 0.6928 -0.1640
vn -0.6796 0.6456 -0.3484
vn 0.6783 0.7320 -0.0639
vn 0.4155 0.8939 -0.1680
vn 0.5352 0.7616 -0.3653
vn 0.0684 0.9929 0.0969
vn -0.6783 0.7320 -0.0639
vn -0.4155 0.8939 -0.1680
vn -0.5352 0.7616 -0.3653
vn -0.0684 0.9929 0.0969
vn -0.0529 0.0000 0.9986
vn 0.5850 -0.5386 -0.6064
vn 0.6085 -0.5013 -0.6151
vn 0.0529 0.0000 0.9986
vn -0.5850 -0.5386 -0.6064
vn -0.6085 -0.5013 -0.6151
vn 0.6007 0.6960 -0.3934
vn -0.0604 -0.8248 -0.5622
vn 0.9937 0.0000 0.1125
vn 0.0000 0.9718 -0.2359
vn 0.4469 -0.5998 -0.6636
vn -0.6007 0.6960 -0.3934
vn 0.0604 -0.8248 -0.5622
vn -0.9937 0.0000 0.1125
vn -0.4469 -0.5998 -0.6636
usemtl Material.001
s off
f 14/1/1 57/2/1 65/3/1
f 49/4/2 8/5/2 15/6/2
f 11/7/3 5/8/3 12/9/3
f 9/10/4 34/11/4 10/12/4
f 63/13/5 5/8/5 51/14/5
f 2/15/6 58/16/6 57/2/6
f 3/17/7 59/18/7 58/16/7
f 1/19/8 2/15/8 14/1/8
f 2/15/9 9/10/9 3/17/9
f 3/17/10 20/20/10 36/21/10
f 76/22/11 11/7/11 23/23/11
f 77/24/12 12/9/12 63/13/12
f 22/25/13 11/7/13 12/9/13
f 16/26/2 13/27/2 17/28/2
f 13/27/14 15/6/14 14/1/14
f 7/29/15 49/30/15 15/6/15
f 17/28/16 14/1/16 65/3/16
f 4/31/17 36/21/17 35/32/17
f 10/12/18 22/25/18 4/31/18
f 59/18/12 22/25/12 77/24/12
f 23/23/19 34/11/19 76/22/19
f 51/14/20 27/33/20 80/34/20
f 52/35/21 26/36/21 6/37/21
f 33/38/2 26/36/2 32/39/2
f 31/40/2 27/33/2 33/38/2
f 32/39/2 81/41/2 30/42/2
f 30/42/2 80/43/2 31/40/2
f 29/44/22 31/40/22 28/45/22
f 25/46/23 32/39/23 24/47/23
f 28/45/24 33/38/24 25/46/24
f 24/47/25 30/42/25 29/44/25
f 14/1/26 2/15/26 57/2/26
f 49/4/27 50/48/27 8/5/27
f 11/7/28 6/37/28 5/8/28
f 63/13/29 12/9/29 5/8/29
f 62/49/30 52/35/30 6/37/30
f 2/15/31 3/17/31 58/16/31
f 6/37/32 26/36/32 27/33/32
f 3/17/7 4/31/7 59/18/7
f 14/1/2 15/6/2 8/5/2
f 8/5/33 1/19/33 14/1/33
f 3/17/34 9/10/34 20/20/34
f 76/22/35 62/49/35 11/7/35
f 77/24/12 22/25/12 12/9/12
f 22/25/36 23/23/36 11/7/36
f 16/26/37 17/28/37 65/3/37
f 17/28/2 13/27/2 14/1/2
f 36/21/38 20/20/38 37/50/38
f 4/31/39 3/17/39 36/21/39
f 10/12/40 23/23/40 22/25/40
f 59/18/12 4/31/12 22/25/12
f 51/14/41 5/8/41 27/33/41
f 52/35/42 81/51/42 26/36/42
f 33/38/2 27/33/2 26/36/2
f 31/40/2 80/43/2 27/33/2
f 32/39/2 26/36/2 81/41/2
f 30/42/2 81/41/2 80/43/2
f 29/44/22 30/42/22 31/40/22
f 25/46/23 33/38/23 32/39/23
f 28/45/43 31/40/43 33/38/43
f 24/47/44 32/39/44 30/42/44
f 23/23/45 10/12/45 34/11/45
f 39/52/27 35/32/27 36/21/27
f 40/53/27 35/32/27 38/54/27
f 39/52/27 37/50/27 40/53/27
f 19/55/46 38/54/46 39/52/46
f 21/56/47 38/54/47 18/57/47
f 19/55/48 40/53/48 21/56/48
f 10/12/49 37/50/49 20/20/49
f 39/52/27 38/54/27 35/32/27
f 40/53/27 37/50/27 35/32/27
f 39/52/27 36/21/27 37/50/27
f 19/55/46 18/57/46 38/54/46
f 21/56/47 40/53/47 38/54/47
f 19/55/48 39/52/48 40/53/48
f 66/58/50 65/3/50 57/2/50
f 49/4/2 67/59/2 48/60/2
f 60/61/51 61/62/51 45/63/51
f 53/64/52 54/65/52 90/66/52
f 63/13/53 51/14/53 45/63/53
f 42/67/54 57/2/54 58/16/54
f 43/68/7 58/16/7 59/18/7
f 41/69/55 66/58/55 42/67/55
f 42/67/56 43/68/56 53/64/56
f 43/68/57 93/70/57 72/71/57
f 76/22/58 75/72/58 60/61/58
f 77/24/12 63/13/12 61/62/12
f 74/73/59 61/62/59 60/61/59
f 68/74/2 69/75/2 64/76/2
f 64/76/60 66/58/60 67/59/60
f 47/77/61 67/59/61 49/30/61
f 69/75/62 65/3/62 66/58/62
f 44/78/63 92/79/63 93/70/63
f 54/65/64 44/78/64 74/73/64
f 59/18/12 77/24/12 74/73/12
f 75/72/65 76/22/65 90/66/65
f 51/14/66 80/34/66 83/80/66
f 52/35/67 46/81/67 82/82/67
f 89/83/2 88/84/2 82/82/2
f 87/85/2 89/83/2 83/80/2
f 88/84/2 86/86/2 81/41/2
f 86/86/2 87/85/2 80/43/2
f 85/87/68 84/88/68 87/85/68
f 79/89/69 78/90/69 88/84/69
f 84/88/70 79/89/70 89/83/70
f 78/90/71 85/87/71 86/86/71
f 66/58/72 57/2/72 42/67/72
f 49/4/27 48/60/27 50/48/27
f 60/61/73 45/63/73 46/81/73
f 63/13/29 45/63/29 61/62/29
f 62/49/74 46/81/74 52/35/74
f 42/67/31 58/16/31 43/68/31
f 46/81/75 83/80/75 82/82/75
f 43/68/7 59/18/7 44/78/7
f 66/58/2 48/60/2 67/59/2
f 48/60/76 66/58/76 41/69/76
f 43/68/77 72/71/77 53/64/77
f 76/22/78 60/61/78 62/49/78
f 77/24/12 61/62/12 74/73/12
f 74/73/79 60/61/79 75/72/79
f 68/74/80 65/3/80 69/75/80
f 69/75/2 66/58/2 64/76/2
f 93/70/81 94/91/81 72/71/81
f 44/78/82 93/70/82 43/68/82
f 54/65/83 74/73/83 75/72/83
f 59/18/12 74/73/12 44/78/12
f 51/14/84 83/80/84 45/63/84
f 52/35/85 82/82/85 81/51/85
f 89/83/2 82/82/2 83/80/2
f 87/85/2 83/80/2 80/43/2
f 88/84/2 81/41/2 82/82/2
f 86/86/2 80/43/2 81/41/2
f 85/87/68 87/85/68 86/86/68
f 79/89/69 88/84/69 89/83/69
f 84/88/86 89/83/86 87/85/86
f 78/90/87 86/86/87 88/84/87
f 75/72/88 90/66/88 54/65/88
f 96/92/27 93/70/27 92/79/27
f 97/93/27 95/94/27 92/79/27
f 96/92/27 97/93/27 94/91/27
f 71/95/89 96/92/89 95/94/89
f 73/96/90 70/97/90 95/94/90
f 71/95/91 73/96/91 97/93/91
f 54/65/92 72/71/92 94/91/92
f 96/92/27 92/79/27 95/94/27
f 97/93/27 92/79/27 94/91/27
f 96/92/27 94/91/27 93/70/27
f 71/95/89 95/94/89 70/97/89
f 73/96/90 95/94/90 97/93/90
f 71/95/91 97/93/91 96/92/91
usemtl Material.002
f 1/19/93 56/98/93 9/10/93
f 10/12/94 20/20/94 9/10/94
f 9/10/95 56/98/95 76/22/95
f 1/19/96 91/99/96 56/98/96
f 1/19/97 55/100/97 91/99/97
f 41/69/98 53/64/98 56/98/98
f 54/65/99 53/64/99 72/71/99
f 53/64/100 76/22/100 56/98/100
f 41/69/101 56/98/101 91/99/101
f 41/69/102 91/99/102 55/100/102
usemtl Material.003
f 62/49/103 6/37/103 11/7/103
f 8/5/104 55/100/104 1/19/104
f 2/15/105 1/19/105 9/10/105
f 9/10/106 76/22/106 34/11/106
f 62/49/107 60/61/107 46/81/107
f 48/60/108 41/69/108 55/100/108
f 42/67/109 53/64/109 41/69/109
f 53/64/110 90/66/110 76/22/110
usemtl Material.004
f 19/55/27 21/56/27 18/57/27
f 25/46/111 29/44/111 28/45/111
f 16/26/112 7/29/112 13/27/112
f 13/27/113 7/29/113 15/6/113
f 25/46/111 24/47/111 29/44/111
f 71/95/27 70/97/27 73/96/27
f 79/89/114 84/88/114 85/87/114
f 68/74/115 64/76/115 47/77/115
f 64/76/116 67/59/116 47/77/116
f 79/89/114 85/87/114 78/90/114
usemtl Material.005
f 6/37/117 27/33/117 5/8/117
f 16/26/118 65/3/118 49/30/118
f 10/12/119 35/32/119 37/50/119
f 8/5/120 50/101/120 55/100/120
f 7/29/121 16/26/121 49/30/121
f 10/12/119 4/31/119 35/32/119
f 46/81/122 45/63/122 83/80/122
f 68/74/123 49/30/123 65/3/123
f 54/65/124 94/91/124 92/79/124
f 48/60/120 55/100/120 50/101/120
f 47/77/125 49/30/125 68/74/125
f 54/65/124 92/79/124 44/78/124
