# Blender v2.90.1 OBJ File: 'Universe 1 Models.blend'
# www.blender.org
mtllib Bottle.mtl
o Bottle_Debris_Circle
v 0.273552 -0.659960 0.157935
v 0.273552 -0.659960 -0.157935
v 0.214149 -0.434120 -0.123639
v 0.214149 -0.434120 0.123639
v -0.273552 -0.659960 0.157935
v 0.000000 -0.659960 0.315871
v 0.000000 -0.434120 0.247278
v -0.214149 -0.434120 0.123639
v 0.000000 -0.659960 0.315871
v 0.273552 -0.659960 0.157935
v 0.214149 -0.434120 0.123639
v 0.000000 -0.434120 0.247278
v -0.273552 -0.659960 -0.157935
v -0.273552 -0.659960 0.157935
v -0.214149 -0.434120 0.123639
v -0.214149 -0.434120 -0.123639
v 0.000000 -0.659960 -0.315871
v -0.273552 -0.659960 -0.157935
v -0.214149 -0.434120 -0.123639
v 0.000000 -0.434120 -0.247278
v 0.214149 -0.434120 0.123639
v 0.214149 -0.434120 -0.123639
v 0.214149 0.256606 -0.123639
v 0.214149 0.256606 0.123639
v -0.214149 -0.434120 0.123639
v 0.000000 -0.434120 0.247278
v 0.000000 0.256606 0.247278
v -0.214149 0.256606 0.123639
v 0.000000 -0.434120 -0.247278
v -0.214149 -0.434120 -0.123639
v -0.214149 0.256606 -0.123639
v 0.000000 0.256606 -0.247278
v 0.214149 -0.434120 -0.123639
v 0.000000 -0.434120 -0.247278
v 0.000000 0.256606 -0.247278
v 0.214149 0.256606 -0.123639
v 0.000000 -0.434120 0.247278
v 0.214149 -0.434120 0.123639
v 0.214149 0.256606 0.123639
v 0.000000 0.256606 0.247278
v -0.214149 -0.434120 -0.123639
v -0.214149 -0.434120 0.123639
v -0.214149 0.256606 0.123639
v -0.214149 0.256606 -0.123639
v 0.214149 0.256606 -0.123639
v 0.000000 0.256606 -0.247278
v 0.000000 0.465884 -0.303334
v 0.262695 0.465884 -0.151667
v 0.000000 0.256606 0.247278
v 0.214149 0.256606 0.123639
v 0.262695 0.465884 0.151667
v 0.000000 0.465884 0.303334
v -0.214149 0.256606 -0.123639
v -0.214149 0.256606 0.123639
v -0.262695 0.465884 0.151667
v -0.262695 0.465884 -0.151667
v 0.214149 0.256606 0.123639
v 0.214149 0.256606 -0.123639
v 0.262695 0.465884 -0.151667
v 0.262695 0.465884 0.151667
v -0.214149 0.256606 0.123639
v 0.000000 0.256606 0.247278
v 0.000000 0.465884 0.303334
v -0.262695 0.465884 0.151667
v 0.000000 0.256606 -0.247278
v -0.214149 0.256606 -0.123639
v -0.262695 0.465884 -0.151667
v 0.000000 0.465884 -0.303334
v 0.262695 0.465884 0.151667
v 0.262695 0.465884 -0.151667
v 0.122877 0.647089 -0.070943
v 0.122877 0.647089 0.070943
v -0.262695 0.465884 0.151667
v 0.000000 0.465884 0.303334
v 0.000000 0.647089 0.141886
v -0.122877 0.647089 0.070943
v 0.000000 0.465884 -0.303334
v -0.262695 0.465884 -0.151667
v -0.122877 0.647089 -0.070943
v 0.000000 0.647089 -0.141886
v 0.262695 0.465884 -0.151667
v 0.000000 0.465884 -0.303334
v 0.000000 0.647089 -0.141886
v 0.122877 0.647089 -0.070943
v 0.000000 0.465884 0.303334
v 0.262695 0.465884 0.151667
v 0.122877 0.647089 0.070943
v 0.000000 0.647089 0.141886
v -0.262695 0.465884 -0.151667
v -0.262695 0.465884 0.151667
v -0.122877 0.647089 0.070943
v -0.122877 0.647089 -0.070943
v 0.089893 0.924561 -0.051900
v 0.000000 0.924561 -0.103799
v 0.000000 1.000339 -0.120626
v 0.104465 1.000339 -0.060313
v 0.000000 0.924561 0.103800
v 0.089893 0.924561 0.051900
v 0.104465 1.000339 0.060313
v 0.000000 1.000339 0.120626
v -0.089893 0.924561 -0.051900
v -0.089893 0.924561 0.051900
v -0.104465 1.000339 0.060313
v -0.104465 1.000339 -0.060313
v 0.089893 0.924561 0.051900
v 0.089893 0.924561 -0.051900
v 0.104465 1.000339 -0.060313
v 0.104465 1.000339 0.060313
v -0.089893 0.924561 0.051900
v 0.000000 0.924561 0.103800
v 0.000000 1.000339 0.120626
v -0.104465 1.000339 0.060313
v 0.000000 0.924561 -0.103799
v -0.089893 0.924561 -0.051900
v -0.104465 1.000339 -0.060313
v 0.000000 1.000339 -0.120626
v 0.000000 0.647089 -0.141886
v -0.122877 0.647089 -0.070943
v -0.089893 0.924561 -0.051900
v 0.000000 0.924561 -0.103799
v -0.122877 0.647089 0.070943
v 0.000000 0.647089 0.141886
v 0.000000 0.924561 0.103800
v -0.089893 0.924561 0.051900
v 0.122877 0.647089 0.070943
v 0.122877 0.647089 -0.070943
v 0.089893 0.924561 -0.051900
v 0.089893 0.924561 0.051900
v -0.122877 0.647089 -0.070943
v -0.122877 0.647089 0.070943
v -0.089893 0.924561 0.051900
v -0.089893 0.924561 -0.051900
v 0.000000 0.647089 0.141886
v 0.122877 0.647089 0.070943
v 0.089893 0.924561 0.051900
v 0.000000 0.924561 0.103800
v 0.122877 0.647089 -0.070943
v 0.000000 0.647089 -0.141886
v 0.000000 0.924561 -0.103799
v 0.089893 0.924561 -0.051900
v 0.104465 1.000339 0.060313
v 0.104465 1.000339 -0.060313
v 0.046187 1.111884 -0.026666
v 0.046187 1.111884 0.026666
v 0.273552 -0.659960 -0.157935
v 0.000000 -0.659960 -0.315871
v 0.000000 -0.434120 -0.247278
v 0.214149 -0.434120 -0.123639
v 0.000000 1.111884 -0.053332
v -0.046187 1.111884 -0.026666
v -0.046187 1.111884 0.026666
v 0.000000 1.111884 0.053332
v 0.046187 1.111884 0.026666
v 0.046187 1.111884 -0.026666
v -0.104465 1.000339 0.060313
v 0.000000 1.000339 0.120626
v 0.000000 1.111884 0.053332
v -0.046187 1.111884 0.026666
v 0.000000 1.000339 -0.120626
v -0.104465 1.000339 -0.060313
v -0.046187 1.111884 -0.026666
v 0.000000 1.111884 -0.053332
v 0.104465 1.000339 -0.060313
v 0.000000 1.000339 -0.120626
v 0.000000 1.111884 -0.053332
v 0.046187 1.111884 -0.026666
v 0.000000 1.000339 0.120626
v 0.104465 1.000339 0.060313
v 0.046187 1.111884 0.026666
v 0.000000 1.111884 0.053332
v -0.104465 1.000339 -0.060313
v -0.104465 1.000339 0.060313
v -0.046187 1.111884 0.026666
v -0.046187 1.111884 -0.026666
v -0.273552 -0.659960 -0.157935
v 0.000000 -0.659960 -0.315871
v -0.000000 -0.734832 -0.249215
v -0.215827 -0.734832 -0.124608
v -0.273552 -0.659960 0.157935
v -0.273552 -0.659960 -0.157935
v -0.215827 -0.734832 -0.124608
v -0.215827 -0.734832 0.124608
v 0.000000 -0.659960 0.315871
v -0.273552 -0.659960 0.157935
v -0.215827 -0.734832 0.124608
v 0.000000 -0.734832 0.249215
v 0.273552 -0.659960 0.157935
v 0.000000 -0.659960 0.315871
v 0.000000 -0.734832 0.249215
v 0.215827 -0.734832 0.124608
v 0.273552 -0.659960 -0.157935
v 0.273552 -0.659960 0.157935
v 0.215827 -0.734832 0.124608
v 0.215827 -0.734832 -0.124608
v 0.000000 -0.659960 -0.315871
v 0.273552 -0.659960 -0.157935
v 0.215827 -0.734832 -0.124608
v -0.000000 -0.734832 -0.249215
v -0.215827 -0.734832 0.124608
v -0.215827 -0.734832 -0.124608
v -0.000000 -0.734832 -0.249215
v 0.215827 -0.734832 -0.124608
v 0.215827 -0.734832 0.124608
v 0.000000 -0.734832 0.249215
vt 0.000000 0.000000
vt 0.000000 0.000000
vt 0.000000 0.000000
vt 0.000000 0.000000
vt 0.000000 0.000000
vt 0.000000 0.000000
vt 0.000000 0.000000
vt 0.000000 0.000000
vt 0.000000 0.000000
vt 0.000000 0.000000
vt 0.000000 0.000000
vt 0.000000 0.000000
vt 0.000000 0.000000
vt 0.000000 0.000000
vt 0.000000 0.000000
vt 0.000000 0.000000
vt 0.000000 0.000000
vt 0.000000 0.000000
vt 0.000000 0.000000
vt 0.000000 0.000000
vt 0.000000 0.000000
vt 0.000000 0.000000
vt 0.000000 0.000000
vt 0.000000 0.000000
vt 0.000000 0.000000
vt 0.000000 0.000000
vt 0.000000 0.000000
vt 0.000000 0.000000
vt 0.000000 0.000000
vt 0.000000 0.000000
vt 0.000000 0.000000
vt 0.000000 0.000000
vt 0.000000 0.000000
vt 0.000000 0.000000
vt 0.000000 0.000000
vt 0.000000 0.000000
vt 0.000000 0.000000
vt 0.000000 0.000000
vt 0.000000 0.000000
vt 0.000000 0.000000
vt 0.000000 0.000000
vt 0.000000 0.000000
vt 0.000000 0.000000
vt 0.000000 0.000000
vt 0.000000 0.000000
vt 0.000000 0.000000
vt 0.000000 0.000000
vt 0.000000 0.000000
vt 0.000000 0.000000
vt 0.000000 0.000000
vt 0.000000 0.000000
vt 0.000000 0.000000
vt 0.000000 0.000000
vt 0.000000 0.000000
vt 0.000000 0.000000
vt 0.000000 0.000000
vt 0.000000 0.000000
vt 0.000000 0.000000
vt 0.000000 0.000000
vt 0.000000 0.000000
vt 0.000000 0.000000
vt 0.000000 0.000000
vt 0.000000 0.000000
vt 0.000000 0.000000
vt 0.000000 0.000000
vt 0.000000 0.000000
vt 0.000000 0.000000
vt 0.000000 0.000000
vt 0.000000 0.000000
vt 0.000000 0.000000
vt 0.000000 0.000000
vt 0.000000 0.000000
vt 0.000000 0.000000
vt 0.000000 0.000000
vt 0.000000 0.000000
vt 0.000000 0.000000
vt 0.000000 0.000000
vt 0.000000 0.000000
vt 0.000000 0.000000
vt 0.000000 0.000000
vt 0.000000 0.000000
vt 0.000000 0.000000
vt 0.000000 0.000000
vt 0.000000 0.000000
vt 0.000000 0.000000
vt 0.000000 0.000000
vt 0.000000 0.000000
vt 0.000000 0.000000
vt 0.000000 0.000000
vt 0.000000 0.000000
vt 0.000000 0.000000
vt 0.000000 0.000000
vt 0.000000 0.000000
vt 0.000000 0.000000
vt 0.000000 0.000000
vt 0.000000 0.000000
vt 0.000000 0.000000
vt 0.000000 0.000000
vt 0.000000 0.000000
vt 0.000000 0.000000
vt 0.000000 0.000000
vt 0.000000 0.000000
vt 0.000000 0.000000
vt 0.000000 0.000000
vt 0.000000 0.000000
vt 0.000000 0.000000
vt 0.000000 0.000000
vt 0.000000 0.000000
vt 0.000000 0.000000
vt 0.000000 0.000000
vt 0.000000 0.000000
vt 0.000000 0.000000
vt 0.000000 0.000000
vt 0.000000 0.000000
vt 0.000000 0.000000
vt 0.000000 0.000000
vt 0.000000 0.000000
vt 0.000000 0.000000
vt 0.000000 0.000000
vt 0.000000 0.000000
vt 0.000000 0.000000
vt 0.000000 0.000000
vt 0.000000 0.000000
vt 0.000000 0.000000
vt 0.000000 0.000000
vt 0.000000 0.000000
vt 0.000000 0.000000
vt 0.000000 0.000000
vt 0.000000 0.000000
vt 0.000000 0.000000
vt 0.000000 0.000000
vt 0.000000 0.000000
vt 0.000000 0.000000
vt 0.000000 0.000000
vt 0.000000 0.000000
vt 0.000000 0.000000
vt 0.000000 0.000000
vt 0.000000 0.000000
vt 0.000000 0.000000
vt 0.000000 0.000000
vt 0.000000 0.000000
vt 0.000000 0.000000
vt 0.000000 0.000000
vt 0.000000 0.000000
vt 0.000000 0.000000
vt 0.000000 0.000000
vt 0.000000 0.000000
vt 0.000000 0.000000
vt 0.000000 0.000000
vt 0.000000 0.000000
vt 0.000000 0.000000
vt 0.000000 0.000000
vt 0.000000 0.000000
vt 0.000000 0.000000
vt 0.000000 0.000000
vt 0.000000 0.000000
vt 0.000000 0.000000
vt 0.000000 0.000000
vt 0.000000 0.000000
vt 0.000000 0.000000
vt 0.000000 0.000000
vt 0.000000 0.000000
vt 0.000000 0.000000
vt 0.000000 0.000000
vt 0.000000 0.000000
vt 0.000000 0.000000
vt 0.000000 0.000000
vt 0.000000 0.000000
vt 0.000000 0.000000
vt 0.000000 0.000000
vt 0.000000 0.000000
vt 0.000000 0.000000
vt 0.000000 0.000000
vt 0.000000 0.000000
vt 0.000000 0.000000
vt 0.000000 0.000000
vt 0.000000 0.000000
vt 0.000000 0.000000
vt 0.000000 0.000000
vt 0.000000 0.000000
vt 0.000000 0.000000
vt 0.000000 0.000000
vt 0.000000 0.000000
vt 0.000000 0.000000
vt 0.000000 0.000000
vt 0.000000 0.000000
vt 0.000000 0.000000
vt 0.000000 0.000000
vt 0.000000 0.000000
vt 0.000000 0.000000
vt 0.000000 0.000000
vt 0.000000 0.000000
vt 0.000000 0.000000
vt 0.000000 0.000000
vt 0.000000 0.000000
vt 0.000000 0.000000
vt 0.000000 0.000000
vt 0.000000 0.000000
vt 0.000000 0.000000
vt 0.000000 0.000000
vt 0.000000 0.000000
vt 0.000000 0.000000
vt 0.000000 0.000000
vt 0.000000 0.000000
vn 0.9671 0.2544 0.0000
vn -0.4836 0.2544 0.8375
vn 0.4836 0.2544 0.8375
vn -0.9671 0.2544 0.0000
vn -0.4836 0.2544 -0.8375
vn 0.4871 -0.2260 -0.8436
vn 0.4871 -0.2260 0.8436
vn -0.9741 -0.2260 0.0000
vn 0.9741 -0.2260 0.0000
vn -0.4871 -0.2260 0.8436
vn -0.4871 -0.2260 -0.8436
vn 0.7917 0.6109 0.0000
vn -0.3959 0.6109 0.6856
vn -0.3959 0.6109 -0.6856
vn 0.3959 0.6109 -0.6856
vn 0.3959 0.6109 0.6856
vn -0.7917 0.6109 0.0000
vn 0.4910 -0.1888 -0.8504
vn 0.4910 -0.1888 0.8504
vn -0.9820 -0.1888 0.0000
vn 0.9820 -0.1888 0.0000
vn -0.4910 -0.1888 0.8504
vn -0.4910 -0.1888 -0.8504
vn -0.4965 0.1180 -0.8600
vn -0.4965 0.1180 0.8600
vn 0.9930 0.1180 0.0000
vn -0.9930 0.1180 0.0000
vn 0.4965 0.1180 0.8600
vn 0.4965 0.1180 -0.8600
vn 0.4836 0.2544 -0.8375
vn -0.3960 -0.6106 -0.6859
vn -0.7920 -0.6106 0.0000
vn -0.3960 -0.6106 0.6859
vn 0.3960 -0.6106 0.6859
vn 0.7920 -0.6106 0.0000
vn 0.3960 -0.6106 -0.6859
vn 0.0000 -1.0000 0.0000
vn 1.0000 0.0000 0.0000
vn -0.5000 0.0000 0.8660
vn -0.5000 0.0000 -0.8660
vn 0.5000 0.0000 -0.8660
vn 0.5000 0.0000 0.8660
vn -1.0000 0.0000 0.0000
vn 0.8863 0.4631 0.0000
vn 0.0000 1.0000 0.0000
vn -0.4432 0.4631 0.7676
vn -0.4432 0.4631 -0.7676
vn 0.4432 0.4631 -0.7676
vn 0.4432 0.4631 0.7676
vn -0.8863 0.4631 0.0000
usemtl Material.055
s off
f 1/1/1 2/2/1 3/3/1
f 1/1/1 3/3/1 4/4/1
f 5/5/2 6/6/2 7/7/2
f 5/5/2 7/7/2 8/8/2
f 9/9/3 10/10/3 11/11/3
f 9/9/3 11/11/3 12/12/3
f 13/13/4 14/14/4 15/15/4
f 13/13/4 15/15/4 16/16/4
f 17/17/5 18/18/5 19/19/5
f 17/17/5 19/19/5 20/20/5
f 45/21/6 46/22/6 47/23/6
f 45/21/6 47/23/6 48/24/6
f 49/25/7 50/26/7 51/27/7
f 49/25/7 51/27/7 52/28/7
f 53/29/8 54/30/8 55/31/8
f 53/29/8 55/31/8 56/32/8
f 57/33/9 58/34/9 59/35/9
f 57/33/9 59/35/9 60/36/9
f 61/37/10 62/38/10 63/39/10
f 61/37/10 63/39/10 64/40/10
f 65/41/11 67/42/11 68/43/11
f 69/44/12 70/45/12 71/46/12
f 69/44/12 71/46/12 72/47/12
f 73/48/13 74/49/13 75/50/13
f 73/48/13 75/50/13 76/51/13
f 77/52/14 78/53/14 79/54/14
f 77/52/14 79/54/14 80/55/14
f 81/56/15 82/57/15 83/58/15
f 81/56/15 83/58/15 84/59/15
f 85/60/16 86/61/16 87/62/16
f 85/60/16 87/62/16 88/63/16
f 89/64/17 90/65/17 91/66/17
f 89/64/17 91/66/17 92/67/17
f 93/68/18 94/69/18 95/70/18
f 93/68/18 95/70/18 96/71/18
f 97/72/19 98/73/19 99/74/19
f 97/72/19 99/74/19 100/75/19
f 101/76/20 102/77/20 103/78/20
f 101/76/20 103/78/20 104/79/20
f 105/80/21 106/81/21 107/82/21
f 105/80/21 107/82/21 108/83/21
f 109/84/22 110/85/22 111/86/22
f 109/84/22 111/86/22 112/87/22
f 113/88/23 114/89/23 115/90/23
f 113/88/23 115/90/23 116/91/23
f 117/92/24 118/93/24 119/94/24
f 117/92/24 119/94/24 120/95/24
f 121/96/25 122/97/25 123/98/25
f 121/96/25 123/98/25 124/99/25
f 125/100/26 126/101/26 127/102/26
f 125/100/26 127/102/26 128/103/26
f 129/104/27 130/105/27 131/106/27
f 129/104/27 131/106/27 132/107/27
f 133/108/28 134/109/28 135/110/28
f 133/108/28 135/110/28 136/111/28
f 137/112/29 138/113/29 139/114/29
f 137/112/29 139/114/29 140/115/29
f 145/116/30 146/117/30 147/118/30
f 145/116/30 147/118/30 148/119/30
f 175/120/31 176/121/31 177/122/31
f 179/123/32 180/124/32 181/125/32
f 179/123/32 181/125/32 182/126/32
f 183/127/33 184/128/33 185/129/33
f 183/127/33 185/129/33 186/130/33
f 187/131/34 188/132/34 189/133/34
f 187/131/34 189/133/34 190/134/34
f 191/135/35 192/136/35 193/137/35
f 191/135/35 193/137/35 194/138/35
f 195/139/36 196/140/36 197/141/36
f 199/142/37 200/143/37 201/144/37
f 201/144/37 202/145/37 203/146/37
f 203/146/37 204/147/37 199/142/37
f 201/144/37 203/146/37 199/142/37
s 1
f 65/41/11 66/148/11 67/42/11
f 175/120/31 177/122/31 178/149/31
f 195/139/36 197/141/36 198/150/36
usemtl Material.056
s off
f 21/151/38 22/152/38 23/153/38
f 21/151/38 23/153/38 24/154/38
f 25/155/39 26/156/39 27/157/39
f 25/155/39 27/157/39 28/158/39
f 29/159/40 30/160/40 31/161/40
f 29/159/40 31/161/40 32/162/40
f 33/163/41 34/164/41 35/165/41
f 33/163/41 35/165/41 36/166/41
f 37/167/42 38/168/42 39/169/42
f 37/167/42 39/169/42 40/170/42
f 41/171/43 42/172/43 43/173/43
f 41/171/43 43/173/43 44/174/43
f 141/175/44 142/176/44 143/177/44
f 141/175/44 143/177/44 144/178/44
f 149/179/45 150/180/45 151/181/45
f 151/181/45 152/182/45 153/183/45
f 153/183/45 154/184/45 149/179/45
f 151/181/45 153/183/45 149/179/45
f 155/185/46 156/186/46 157/187/46
f 155/185/46 157/187/46 158/188/46
f 159/189/47 160/190/47 161/191/47
f 159/189/47 161/191/47 162/192/47
f 163/193/48 164/194/48 165/195/48
f 163/193/48 165/195/48 166/196/48
f 167/197/49 169/198/49 170/199/49
f 171/200/50 172/201/50 173/202/50
f 171/200/50 173/202/50 174/203/50
s 1
f 167/197/49 168/204/49 169/198/49
end