# Blender v2.90.1 OBJ File: 'Universe 1 Models.blend'
# www.blender.org
mtllib KeminthRing.mtl
o Circle_Circle.002
v 59.551346 -16.059507 -32.114773
v 56.792099 -5.064815 -7.100080
v 68.732941 -6.129718 -8.592909
v -49.205605 13.269511 26.535515
v -68.732933 6.129707 8.592886
v -59.551346 16.059498 32.114750
v 34.128002 -19.454063 -41.931202
v 59.551346 -16.059507 -32.114773
v 41.303593 -23.544380 -50.747452
v -34.128006 19.454058 41.931187
v -41.303600 23.544378 50.747444
v 13.854720 -22.676901 -50.943218
v 16.767746 -27.444838 -61.654297
v -16.767744 27.444836 61.654289
v -8.527818 -22.447388 -52.199596
v -10.320840 -27.167068 -63.174835
v 8.527827 22.447382 52.199585
v 10.320848 27.167065 63.174828
v -35.838158 -22.753359 -55.077576
v 29.612085 18.800455 45.509041
v 35.838188 22.753349 55.077560
v -55.899448 -14.875656 -38.595261
v -29.612061 -18.800461 -45.509056
v 46.188179 12.291326 31.890152
v 55.899479 14.875642 38.595226
v -55.732502 -3.910971 -13.416316
v -67.450562 -4.733274 -16.237165
v 68.732941 -6.129718 -8.592909
v 55.732513 3.910965 13.416302
v 67.450562 4.733266 16.237150
v -56.792091 5.064805 7.100060
v 59.639526 -13.519065 -33.221645
v 56.880280 -2.524372 -8.206953
v 49.293785 -10.729076 -27.642408
v -68.644753 8.670150 7.486014
v -49.117424 15.809954 25.428642
v -59.463165 18.599939 31.007877
v 59.639526 -13.519065 -33.221645
v 34.216183 -16.913622 -43.038074
v 41.391773 -21.003939 -51.854324
v -59.463165 18.599939 31.007877
v -34.039825 21.994499 40.824314
v -41.215420 26.084820 49.640572
v 41.391773 -21.003939 -51.854324
v 13.942902 -20.136459 -52.050091
v 16.855927 -24.904396 -62.761169
v -16.679564 29.985277 60.547417
v -34.039825 21.994499 40.824314
v -13.766537 25.217340 49.836342
v 16.855927 -24.904396 -62.761169
v -8.439636 -19.906946 -53.306469
v -10.232658 -24.626627 -64.281708
v -16.679564 29.985277 60.547417
v 8.616009 24.987823 51.092712
v 10.409030 29.707506 62.067955
v -10.232658 -24.626627 -64.281708
v -29.523880 -16.260019 -46.615929
v -35.749977 -20.212917 -56.184448
v 10.409030 29.707506 62.067955
v 29.700266 21.340897 44.402168
v 35.926369 25.293791 53.970688
v -35.749977 -20.212917 -56.184448
v -46.099960 -9.750896 -32.997051
v -55.811268 -12.335214 -39.702133
v 35.926369 25.293791 53.970688
v 46.276360 14.831768 30.783279
v 55.987659 17.416084 37.488354
v -55.644321 -1.370529 -14.523188
v -67.362381 -2.192831 -17.344038
v 68.821121 -3.589276 -9.699781
v 55.820694 6.451407 12.309429
v 56.880280 -2.524372 -8.206953
v 55.987659 17.416084 37.488354
v 55.820694 6.451407 12.309429
v 67.538742 7.273708 15.130278
v -56.703911 7.605247 5.993187
v -68.732933 6.129707 8.592886
v -59.463165 18.599939 31.007877
v -59.551346 16.059498 32.114750
v -55.732502 -3.910971 -13.416316
v -46.099960 -9.750896 -32.997051
v -46.188141 -12.291338 -31.890181
v -59.551346 16.059498 32.114750
v -41.215420 26.084820 49.640572
v -41.303600 23.544378 50.747444
v -56.792091 5.064805 7.100060
v -55.644321 -1.370529 -14.523188
v -55.732502 -3.910971 -13.416316
v -41.303600 23.544378 50.747444
v -16.679564 29.985277 60.547417
v -16.767744 27.444836 61.654289
v -49.205605 13.269511 26.535515
v -56.703911 7.605247 5.993187
v -56.792091 5.064805 7.100060
v -16.767744 27.444836 61.654289
v 10.409030 29.707506 62.067955
v 10.320848 27.167065 63.174828
v -34.128006 19.454058 41.931187
v -49.117424 15.809954 25.428642
v -49.205605 13.269511 26.535515
v 10.320848 27.167065 63.174828
v 35.926369 25.293791 53.970688
v 35.838188 22.753349 55.077560
v 67.450562 4.733266 16.237150
v 68.821121 -3.589276 -9.699781
v 68.732941 -6.129718 -8.592909
v -13.854718 22.676899 50.943214
v -34.039825 21.994499 40.824314
v -34.128006 19.454058 41.931187
v 35.838188 22.753349 55.077560
v 55.987659 17.416084 37.488354
v 55.899479 14.875642 38.595226
v 68.732941 -6.129718 -8.592909
v 59.639526 -13.519065 -33.221645
v 59.551346 -16.059507 -32.114773
v 8.527827 22.447382 52.199585
v -13.766537 25.217340 49.836342
v -13.854718 22.676899 50.943214
v 55.899479 14.875642 38.595226
v 67.538742 7.273708 15.130278
v 67.450562 4.733266 16.237150
v 59.551346 -16.059507 -32.114773
v 41.391773 -21.003939 -51.854324
v 41.303593 -23.544380 -50.747452
v 29.612085 18.800455 45.509041
v 8.616009 24.987823 51.092712
v 8.527827 22.447382 52.199585
v 56.792099 -5.064815 -7.100080
v 55.820694 6.451407 12.309429
v 55.732513 3.910965 13.416302
v 41.303593 -23.544380 -50.747452
v 16.855927 -24.904396 -62.761169
v 16.767746 -27.444838 -61.654297
v 46.188179 12.291326 31.890152
v 29.700266 21.340897 44.402168
v 29.612085 18.800455 45.509041
v 49.205605 -13.269519 -26.535536
v 56.880280 -2.524372 -8.206953
v 56.792099 -5.064815 -7.100080
v 16.767746 -27.444838 -61.654297
v -10.232658 -24.626627 -64.281708
v -10.320840 -27.167068 -63.174835
v 55.732513 3.910965 13.416302
v 46.276360 14.831768 30.783279
v 46.188179 12.291326 31.890152
v 34.128002 -19.454063 -41.931202
v 49.293785 -10.729076 -27.642408
v 49.205605 -13.269519 -26.535536
v -10.320840 -27.167068 -63.174835
v -35.749977 -20.212917 -56.184448
v -35.838158 -22.753359 -55.077576
v 13.854720 -22.676901 -50.943218
v 34.216183 -16.913622 -43.038074
v 34.128002 -19.454063 -41.931202
v -35.838158 -22.753359 -55.077576
v -55.811268 -12.335214 -39.702133
v -55.899448 -14.875656 -38.595261
v -8.527818 -22.447388 -52.199596
v 13.942902 -20.136459 -52.050091
v 13.854720 -22.676901 -50.943218
v -55.899448 -14.875656 -38.595261
v -67.362381 -2.192831 -17.344038
v -67.450562 -4.733274 -16.237165
v -29.612061 -18.800461 -45.509056
v -8.439636 -19.906946 -53.306469
v -8.527818 -22.447388 -52.199596
v -67.450562 -4.733274 -16.237165
v -68.644753 8.670150 7.486014
v -68.732933 6.129707 8.592886
v -46.188141 -12.291338 -31.890181
v -29.523880 -16.260019 -46.615929
v -29.612061 -18.800461 -45.509056
v 49.205605 -13.269519 -26.535536
v 56.792099 -5.064815 -7.100080
v -13.854718 22.676899 50.943214
v -46.188141 -12.291338 -31.890181
v 59.639526 -13.519065 -33.221645
v 68.821121 -3.589276 -9.699781
v 56.880280 -2.524372 -8.206953
v 59.639526 -13.519065 -33.221645
v 49.293785 -10.729076 -27.642408
v 34.216183 -16.913622 -43.038074
v 41.391773 -21.003939 -51.854324
v 34.216183 -16.913622 -43.038074
v 13.942902 -20.136459 -52.050091
v -16.679564 29.985277 60.547417
v -41.215420 26.084820 49.640572
v -34.039825 21.994499 40.824314
v 16.855927 -24.904396 -62.761169
v 13.942902 -20.136459 -52.050091
v -8.439636 -19.906946 -53.306469
v 8.616009 24.987823 51.092712
v -10.232658 -24.626627 -64.281708
v -8.439636 -19.906946 -53.306469
v -29.523880 -16.260019 -46.615929
v -29.523880 -16.260019 -46.615929
v 35.926369 25.293791 53.970688
v 29.700266 21.340897 44.402168
v 46.276360 14.831768 30.783279
v -55.811268 -12.335214 -39.702133
v -46.099960 -9.750896 -32.997051
v -55.644321 -1.370529 -14.523188
v 68.821121 -3.589276 -9.699781
v 46.276360 14.831768 30.783279
v -67.362381 -2.192831 -17.344038
v -55.644321 -1.370529 -14.523188
v -56.703911 7.605247 5.993187
v -68.732933 6.129707 8.592886
v -68.644753 8.670150 7.486014
v -59.463165 18.599939 31.007877
v -55.732502 -3.910971 -13.416316
v -55.644321 -1.370529 -14.523188
v -46.099960 -9.750896 -32.997051
v -59.551346 16.059498 32.114750
v -59.463165 18.599939 31.007877
v -41.215420 26.084820 49.640572
v -56.792091 5.064805 7.100060
v -56.703911 7.605247 5.993187
v -55.644321 -1.370529 -14.523188
v -41.215420 26.084820 49.640572
v -49.205605 13.269511 26.535515
v -49.117424 15.809954 25.428642
v -56.703911 7.605247 5.993187
v -16.767744 27.444836 61.654289
v -16.679564 29.985277 60.547417
v 10.409030 29.707506 62.067955
v -34.128006 19.454058 41.931187
v -34.039825 21.994499 40.824314
v -49.117424 15.809954 25.428642
v 10.320848 27.167065 63.174828
v 10.409030 29.707506 62.067955
v 35.926369 25.293791 53.970688
v 67.538742 7.273708 15.130278
v -13.766537 25.217340 49.836342
v 35.838188 22.753349 55.077560
v 35.926369 25.293791 53.970688
v 55.987659 17.416084 37.488354
v 68.732941 -6.129718 -8.592909
v 68.821121 -3.589276 -9.699781
v 59.639526 -13.519065 -33.221645
v 8.527827 22.447382 52.199585
v 8.616009 24.987823 51.092712
v -13.766537 25.217340 49.836342
v 55.987659 17.416084 37.488354
v 59.639526 -13.519065 -33.221645
v 29.700266 21.340897 44.402168
v 56.880280 -2.524372 -8.206953
v 41.303593 -23.544380 -50.747452
v 41.391773 -21.003939 -51.854324
v 16.855927 -24.904396 -62.761169
v 46.188179 12.291326 31.890152
v 46.276360 14.831768 30.783279
v 29.700266 21.340897 44.402168
v 49.205605 -13.269519 -26.535536
v 49.293785 -10.729076 -27.642408
v 56.880280 -2.524372 -8.206953
v 16.767746 -27.444838 -61.654297
v 16.855927 -24.904396 -62.761169
v -10.232658 -24.626627 -64.281708
v 55.820694 6.451407 12.309429
v 34.128002 -19.454063 -41.931202
v 34.216183 -16.913622 -43.038074
v 49.293785 -10.729076 -27.642408
v -10.232658 -24.626627 -64.281708
v 13.854720 -22.676901 -50.943218
v 13.942902 -20.136459 -52.050091
v 34.216183 -16.913622 -43.038074
v -35.838158 -22.753359 -55.077576
v -35.749977 -20.212917 -56.184448
v -55.811268 -12.335214 -39.702133
v -8.527818 -22.447388 -52.199596
v -8.439636 -19.906946 -53.306469
v 13.942902 -20.136459 -52.050091
v -55.811268 -12.335214 -39.702133
v -29.612061 -18.800461 -45.509056
v -29.523880 -16.260019 -46.615929
v -8.439636 -19.906946 -53.306469
v -67.362381 -2.192831 -17.344038
v -46.188141 -12.291338 -31.890181
v -46.099960 -9.750896 -32.997051
v -29.523880 -16.260019 -46.615929
vt 0.000000 0.000000
vt 0.000000 0.000000
vt 0.000000 0.000000
vt 0.000000 0.000000
vt 0.000000 0.000000
vt 0.000000 0.000000
vt 0.000000 0.000000
vt 0.000000 0.000000
vt 0.000000 0.000000
vt 0.000000 0.000000
vt 0.000000 0.000000
vt 0.000000 0.000000
vt 0.000000 0.000000
vt 0.000000 0.000000
vt 0.000000 0.000000
vt 0.000000 0.000000
vt 0.000000 0.000000
vt 0.000000 0.000000
vt 0.000000 0.000000
vt 0.000000 0.000000
vt 0.000000 0.000000
vt 0.000000 0.000000
vt 0.000000 0.000000
vt 0.000000 0.000000
vt 0.000000 0.000000
vt 0.000000 0.000000
vt 0.000000 0.000000
vt 0.000000 0.000000
vt 0.000000 0.000000
vt 0.000000 0.000000
vt 0.000000 0.000000
vt 0.000000 0.000000
vt 0.000000 0.000000
vt 0.000000 0.000000
vt 0.000000 0.000000
vt 0.000000 0.000000
vt 0.000000 0.000000
vt 0.000000 0.000000
vt 0.000000 0.000000
vt 0.000000 0.000000
vt 0.000000 0.000000
vt 0.000000 0.000000
vt 0.000000 0.000000
vt 0.000000 0.000000
vt 0.000000 0.000000
vt 0.000000 0.000000
vt 0.000000 0.000000
vt 0.000000 0.000000
vt 0.000000 0.000000
vt 0.000000 0.000000
vt 0.000000 0.000000
vt 0.000000 0.000000
vt 0.000000 0.000000
vt 0.000000 0.000000
vt 0.000000 0.000000
vt 0.000000 0.000000
vt 0.000000 0.000000
vt 0.000000 0.000000
vt 0.000000 0.000000
vt 0.000000 0.000000
vt 0.000000 0.000000
vt 0.000000 0.000000
vt 0.000000 0.000000
vt 0.000000 0.000000
vt 0.000000 0.000000
vt 0.000000 0.000000
vt 0.000000 0.000000
vt 0.000000 0.000000
vt 0.000000 0.000000
vt 0.000000 0.000000
vt 0.000000 0.000000
vt 0.000000 0.000000
vt 0.000000 0.000000
vt 0.000000 0.000000
vt 0.000000 0.000000
vt 0.000000 0.000000
vt 0.000000 0.000000
vt 0.000000 0.000000
vt 0.000000 0.000000
vt 0.000000 0.000000
vt 0.000000 0.000000
vt 0.000000 0.000000
vt 0.000000 0.000000
vt 0.000000 0.000000
vt 0.000000 0.000000
vt 0.000000 0.000000
vt 0.000000 0.000000
vt 0.000000 0.000000
vt 0.000000 0.000000
vt 0.000000 0.000000
vt 0.000000 0.000000
vt 0.000000 0.000000
vt 0.000000 0.000000
vt 0.000000 0.000000
vt 0.000000 0.000000
vt 0.000000 0.000000
vt 0.000000 0.000000
vt 0.000000 0.000000
vt 0.000000 0.000000
vt 0.000000 0.000000
vt 0.000000 0.000000
vt 0.000000 0.000000
vt 0.000000 0.000000
vt 0.000000 0.000000
vt 0.000000 0.000000
vt 0.000000 0.000000
vt 0.000000 0.000000
vt 0.000000 0.000000
vt 0.000000 0.000000
vt 0.000000 0.000000
vt 0.000000 0.000000
vt 0.000000 0.000000
vt 0.000000 0.000000
vt 0.000000 0.000000
vt 0.000000 0.000000
vt 0.000000 0.000000
vt 0.000000 0.000000
vt 0.000000 0.000000
vt 0.000000 0.000000
vt 0.000000 0.000000
vt 0.000000 0.000000
vt 0.000000 0.000000
vt 0.000000 0.000000
vt 0.000000 0.000000
vt 0.000000 0.000000
vt 0.000000 0.000000
vt 0.000000 0.000000
vt 0.000000 0.000000
vt 0.000000 0.000000
vt 0.000000 0.000000
vt 0.000000 0.000000
vt 0.000000 0.000000
vt 0.000000 0.000000
vt 0.000000 0.000000
vt 0.000000 0.000000
vt 0.000000 0.000000
vt 0.000000 0.000000
vt 0.000000 0.000000
vt 0.000000 0.000000
vt 0.000000 0.000000
vt 0.000000 0.000000
vt 0.000000 0.000000
vt 0.000000 0.000000
vt 0.000000 0.000000
vt 0.000000 0.000000
vt 0.000000 0.000000
vt 0.000000 0.000000
vt 0.000000 0.000000
vt 0.000000 0.000000
vt 0.000000 0.000000
vt 0.000000 0.000000
vt 0.000000 0.000000
vt 0.000000 0.000000
vt 0.000000 0.000000
vt 0.000000 0.000000
vt 0.000000 0.000000
vt 0.000000 0.000000
vt 0.000000 0.000000
vt 0.000000 0.000000
vt 0.000000 0.000000
vt 0.000000 0.000000
vt 0.000000 0.000000
vt 0.000000 0.000000
vt 0.000000 0.000000
vt 0.000000 0.000000
vt 0.000000 0.000000
vt 0.000000 0.000000
vt 0.000000 0.000000
vt 0.000000 0.000000
vt 0.000000 0.000000
vt 0.000000 0.000000
vt 0.000000 0.000000
vt 0.000000 0.000000
vt 0.000000 0.000000
vt 0.000000 0.000000
vt 0.000000 0.000000
vt 0.000000 0.000000
vt 0.000000 0.000000
vt 0.000000 0.000000
vt 0.000000 0.000000
vt 0.000000 0.000000
vt 0.000000 0.000000
vt 0.000000 0.000000
vt 0.000000 0.000000
vt 0.000000 0.000000
vt 0.000000 0.000000
vt 0.000000 0.000000
vt 0.000000 0.000000
vt 0.000000 0.000000
vt 0.000000 0.000000
vt 0.000000 0.000000
vt 0.000000 0.000000
vt 0.000000 0.000000
vt 0.000000 0.000000
vt 0.000000 0.000000
vt 0.000000 0.000000
vt 0.000000 0.000000
vt 0.000000 0.000000
vt 0.000000 0.000000
vt 0.000000 0.000000
vt 0.000000 0.000000
vt 0.000000 0.000000
vt 0.000000 0.000000
vt 0.000000 0.000000
vt 0.000000 0.000000
vt 0.000000 0.000000
vt 0.000000 0.000000
vt 0.000000 0.000000
vt 0.000000 0.000000
vt 0.000000 0.000000
vt 0.000000 0.000000
vt 0.000000 0.000000
vt 0.000000 0.000000
vt 0.000000 0.000000
vt 0.000000 0.000000
vt 0.000000 0.000000
vt 0.000000 0.000000
vt 0.000000 0.000000
vt 0.000000 0.000000
vt 0.000000 0.000000
vt 0.000000 0.000000
vt 0.000000 0.000000
vt 0.000000 0.000000
vt 0.000000 0.000000
vt 0.000000 0.000000
vt 0.000000 0.000000
vt 0.000000 0.000000
vt 0.000000 0.000000
vt 0.000000 0.000000
vt 0.000000 0.000000
vt 0.000000 0.000000
vt 0.000000 0.000000
vt 0.000000 0.000000
vt 0.000000 0.000000
vt 0.000000 0.000000
vt 0.000000 0.000000
vt 0.000000 0.000000
vt 0.000000 0.000000
vt 0.000000 0.000000
vt 0.000000 0.000000
vt 0.000000 0.000000
vt 0.000000 0.000000
vt 0.000000 0.000000
vt 0.000000 0.000000
vt 0.000000 0.000000
vt 0.000000 0.000000
vt 0.000000 0.000000
vt 0.000000 0.000000
vt 0.000000 0.000000
vt 0.000000 0.000000
vt 0.000000 0.000000
vt 0.000000 0.000000
vt 0.000000 0.000000
vt 0.000000 0.000000
vt 0.000000 0.000000
vt 0.000000 0.000000
vt 0.000000 0.000000
vt 0.000000 0.000000
vt 0.000000 0.000000
vt 0.000000 0.000000
vt 0.000000 0.000000
vt 0.000000 0.000000
vt 0.000000 0.000000
vt 0.000000 0.000000
vt 0.000000 0.000000
vt 0.000000 0.000000
vt 0.000000 0.000000
vt 0.000000 0.000000
vt 0.000000 0.000000
vt 0.000000 0.000000
vt 0.000000 0.000000
vt 0.000000 0.000000
vt 0.000000 0.000000
vt 0.000000 0.000000
vt 0.000000 0.000000
vt 0.000000 0.000000
vt 0.000000 0.000000
vt 0.000000 0.000000
vt 0.000000 0.000000
vt 0.000000 0.000000
vt 0.000000 0.000000
vn 0.0318 0.9163 -0.3992
vn -0.0318 -0.9163 0.3992
vn 0.9405 -0.1627 -0.2984
vn -0.9043 -0.1438 -0.4020
vn 0.7394 -0.2903 -0.6075
vn -0.9984 0.0102 -0.0560
vn -0.9405 0.1627 0.2984
vn 0.0473 -0.4004 -0.9151
vn -0.7394 0.2903 0.6075
vn -0.3384 -0.3660 -0.8669
vn -0.4257 0.3738 0.8240
vn -0.6725 -0.2759 -0.6867
vn -0.0473 0.4004 0.9151
vn 0.3384 0.3660 0.8669
vn 0.9984 -0.0102 0.0560
vn 0.6725 0.2759 0.6867
vn 0.9043 0.1438 0.4020
vn 0.4257 -0.3738 -0.8240
usemtl Material.083
s off
f 1/1/1 2/2/1 3/3/1
f 4/4/1 5/5/1 6/6/1
f 7/7/1 8/8/1 9/9/1
f 10/10/1 6/6/1 11/11/1
f 12/12/1 9/9/1 13/13/1
f 14/14/1 10/10/1 11/11/1
f 15/15/1 13/13/1 16/16/1
f 17/17/1 14/14/1 18/18/1
f 19/19/1 15/15/1 16/16/1
f 20/20/1 18/18/1 21/21/1
f 22/22/1 23/23/1 19/19/1
f 24/24/1 21/21/1 25/25/1
f 26/26/1 22/22/1 27/27/1
f 28/28/1 29/29/1 30/30/1
f 29/29/1 25/25/1 30/30/1
f 31/31/1 27/27/1 5/5/1
f 32/32/2 33/33/2 34/34/2
f 35/35/2 36/36/2 37/37/2
f 38/38/2 39/39/2 40/40/2
f 41/41/2 42/42/2 43/43/2
f 44/44/2 45/45/2 46/46/2
f 47/47/2 48/48/2 49/49/2
f 50/50/2 51/51/2 52/52/2
f 53/53/2 54/54/2 55/55/2
f 56/56/2 57/57/2 58/58/2
f 59/59/2 60/60/2 61/61/2
f 62/62/2 63/63/2 64/64/2
f 65/65/2 66/66/2 67/67/2
f 64/64/2 68/68/2 69/69/2
f 70/70/2 71/71/2 72/72/2
f 73/73/2 74/74/2 75/75/2
f 69/69/2 76/76/2 35/35/2
f 77/77/3 78/78/3 79/79/3
f 80/80/4 81/81/4 82/82/4
f 83/83/5 84/84/5 85/85/5
f 86/86/6 87/87/6 88/88/6
f 92/89/7 93/90/7 94/91/7
f 95/92/8 96/93/8 97/94/8
f 98/95/9 99/96/9 100/97/9
f 101/98/10 102/99/10 103/100/10
f 104/101/6 105/102/6 106/103/6
f 107/104/11 108/105/11 109/106/11
f 110/107/12 111/108/12 112/109/12
f 113/110/7 114/111/7 115/112/7
f 116/113/13 117/114/13 118/115/13
f 119/116/4 120/117/4 121/118/4
f 125/119/14 126/120/14 127/121/14
f 128/122/15 129/123/15 130/124/15
f 134/125/16 135/126/16 136/127/16
f 137/128/3 138/129/3 139/130/3
f 140/131/13 141/132/13 142/133/13
f 143/134/17 144/135/17 145/136/17
f 146/137/5 147/138/5 148/139/5
f 155/140/16 156/141/16 157/142/16
f 158/143/8 159/144/8 160/145/8
f 161/146/17 162/147/17 163/148/17
f 164/149/10 165/150/10 166/151/10
f 167/152/15 168/153/15 169/154/15
f 170/155/12 171/156/12 172/157/12
f 8/8/1 173/158/1 174/159/1
f 4/4/1 31/31/1 5/5/1
f 7/7/1 173/158/1 8/8/1
f 10/10/1 4/4/1 6/6/1
f 12/12/1 7/7/1 9/9/1
f 14/14/1 175/160/1 10/10/1
f 15/15/1 12/12/1 13/13/1
f 17/17/1 175/160/1 14/14/1
f 19/19/1 23/23/1 15/15/1
f 20/20/1 17/17/1 18/18/1
f 22/22/1 176/161/1 23/23/1
f 24/24/1 20/20/1 21/21/1
f 26/26/1 176/161/1 22/22/1
f 28/28/1 174/159/1 29/29/1
f 29/29/1 24/24/1 25/25/1
f 31/31/1 26/26/1 27/27/1
f 177/162/2 178/163/2 179/164/2
f 35/35/2 76/76/2 36/36/2
f 180/165/2 181/166/2 182/167/2
f 37/37/2 36/36/2 48/48/2
f 183/168/2 184/169/2 185/170/2
f 186/171/2 187/172/2 188/173/2
f 189/174/2 190/175/2 191/176/2
f 47/47/2 49/49/2 192/177/2
f 193/178/2 194/179/2 195/180/2
f 59/59/2 192/177/2 60/60/2
f 62/62/2 196/181/2 63/63/2
f 197/182/2 198/183/2 199/184/2
f 200/185/2 201/186/2 202/187/2
f 203/188/2 75/75/2 74/74/2
f 73/73/2 204/189/2 74/74/2
f 205/190/2 206/191/2 207/192/2
f 208/193/3 209/194/3 210/195/3
f 214/196/5 215/197/5 216/198/5
f 217/199/6 218/200/6 219/201/6
f 221/202/7 222/203/7 223/204/7
f 224/205/8 225/206/8 226/207/8
f 227/208/9 228/209/9 229/210/9
f 230/211/10 231/212/10 232/213/10
f 104/101/6 233/214/6 105/102/6
f 107/104/11 234/215/11 108/105/11
f 235/216/12 236/217/12 237/218/12
f 238/219/7 239/220/7 240/221/7
f 241/222/13 242/223/13 243/224/13
f 119/116/4 244/225/4 120/117/4
f 125/119/14 246/226/14 126/120/14
f 128/122/15 247/227/15 129/123/15
f 251/228/16 252/229/16 253/230/16
f 257/231/13 258/232/13 259/233/13
f 143/134/17 260/234/17 144/135/17
f 261/235/5 262/236/5 263/237/5
f 265/238/18 266/239/18 267/240/18
f 268/241/16 269/242/16 270/243/16
f 161/146/17 274/244/17 162/147/17
f 275/245/10 276/246/10 277/247/10
f 167/152/15 278/248/15 168/153/15
f 279/249/12 280/250/12 281/251/12
s 1
f 89/252/18 90/253/18 91/254/18
f 122/255/9 123/256/9 124/257/9
f 131/258/11 132/259/11 133/260/11
f 149/261/14 150/262/14 151/263/14
f 152/264/18 153/265/18 154/266/18
f 211/267/4 212/268/4 213/269/4
f 89/252/18 220/270/18 90/253/18
f 122/255/9 245/271/9 123/256/9
f 248/272/11 249/273/11 250/274/11
f 254/275/3 255/276/3 256/277/3
f 149/261/14 264/278/14 150/262/14
f 271/279/8 272/280/8 273/281/8
end