# Blender v2.91.2 OBJ File: 'Asteroids.blend'
# www.blender.org
mtllib Asteroids 1.mtl
o Asteroid_2_Icosphere_cell.592
v -2.647476 -4.837096 0.702367
v 3.766791 0.062950 -3.957788
v 3.202205 5.727389 -2.978560
v -4.410480 9.539468 -2.009586
v -7.095503 -0.772667 -5.261787
v -8.118373 1.769443 -4.500930
v -5.097916 8.475801 1.808769
v -4.889115 -4.723989 -0.424936
v -8.048895 2.043846 -2.789980
v 3.062702 3.629702 2.816015
v 1.112257 3.679207 5.511252
v 2.058673 1.655552 3.772644
v 1.693684 1.764746 4.298537
v 4.593179 4.389829 -1.414572
v 1.955283 1.182538 3.538680
v 3.591969 0.170997 -4.681245
v 2.471353 -0.872271 -5.033270
v 2.429877 -0.958358 -4.929096
v 3.926156 0.897365 -4.448235
v 4.630998 4.587845 -1.994483
v 4.660968 4.744760 -2.470980
v 4.340087 3.064664 -3.768739
v 4.419672 3.481368 -3.634779
v 1.570037 0.867157 3.766533
v 1.698352 -1.517191 -4.258055
v -2.647476 -4.837096 -0.260107
v -1.266728 -3.782303 -1.531936
v -3.618737 -4.837096 1.017954
v -4.028241 -5.052740 0.505276
v -3.489177 -5.132647 0.090842
v -3.965673 -5.170718 0.131667
v -4.300733 -5.197156 0.161368
v -0.634747 0.823443 5.498911
v -0.219804 4.009467 6.566965
v 1.304737 1.153966 4.306414
v -2.513788 -3.046517 2.626177
v -3.019794 -4.092440 1.848287
v -3.145701 -4.248646 1.674195
v 3.062702 3.629702 2.816015
v 1.112257 3.679207 5.511252
v 2.058673 1.655552 3.772644
v 1.693684 1.764746 4.298537
v 4.593179 4.389829 -1.414572
v 1.955283 1.182538 3.538680
v 3.591969 0.170997 -4.681245
v 2.471353 -0.872271 -5.033270
v 2.429877 -0.958358 -4.929096
v 3.926156 0.897365 -4.448235
v 4.630998 4.587845 -1.994483
v 4.660968 4.744760 -2.470980
v 4.340087 3.064664 -3.768739
v 4.419672 3.481368 -3.634779
v 1.570037 0.867157 3.766533
v 1.698352 -1.517191 -4.258055
v -2.647476 -4.837096 -0.260107
v -1.266728 -3.782303 -1.531936
v -3.618737 -4.837096 1.017954
v -4.028241 -5.052740 0.505276
v -3.489177 -5.132647 0.090842
v -3.965673 -5.170718 0.131667
v -4.300733 -5.197156 0.161368
v -0.634747 0.823443 5.498911
v -0.219804 4.009467 6.566965
v 1.304737 1.153966 4.306414
v -2.513788 -3.046517 2.626177
v -3.019794 -4.092440 1.848287
v -3.145701 -4.248646 1.674195
vt 0.636363 0.157461
vt 0.628068 0.157461
vt 0.631579 0.165747
vt 0.626889 0.141051
vt 0.660024 0.095678
vt 0.633434 0.132072
vt 0.681818 0.078731
vt 0.675853 0.068399
vt 0.672430 0.078731
vt 0.759793 0.157461
vt 0.775432 0.104904
vt 0.730110 0.152545
vt 0.794806 0.000000
vt 0.831438 0.031098
vt 1.000000 0.196993
vt 0.000000 0.000000
vt 0.514565 0.000000
vt 0.428793 0.428793
vt 1.000000 0.000000
vt 0.331615 0.331615
vt 0.000000 0.000000
vt 0.728412 0.000000
vt 0.669761 0.669761
vt 0.000000 0.000000
vt 0.876264 0.864548
vt 0.865410 0.865410
vt 0.000000 0.000000
vt 0.865410 0.000000
vt 1.000000 1.000000
vt 0.000000 0.000000
vt 1.000000 0.000000
vt 1.000000 1.000000
vt 0.000000 0.000000
vt 1.000000 0.000000
vt 1.000000 1.000000
vt 1.000000 0.000000
vt 1.000000 1.000000
vt 1.000000 0.000000
vt 1.000000 1.000000
vt 1.000000 0.428793
vt 0.598794 0.000000
vt 1.000000 0.000000
vt 0.205194 0.000000
vt 0.730761 0.163504
vt 0.711214 0.185274
vt 0.743664 0.185852
vt 0.708450 0.033060
vt 0.740828 0.000000
vt 1.000000 0.000000
vt 0.457389 0.457389
vt 1.000000 0.713925
vt 0.661169 0.200427
vt 0.638207 0.187268
vt 0.687268 0.057388
vt 0.196993 0.196993
vt 0.734418 0.157461
vt 0.534441 0.284657
vt 0.513904 0.346198
vt 0.438394 0.279067
vt 1.000000 0.259172
vt 0.457389 0.000000
vt 0.783234 0.067068
vt 0.778691 0.068399
vt 0.784941 0.071192
vt 0.722319 0.157461
vt 0.780277 0.088185
vt 0.772726 0.078731
vt 0.779634 0.090695
vt 0.724434 0.152545
vt 0.976500 0.803892
vt 0.728412 0.728412
vt 0.625594 0.142044
vt 1.000000 0.669761
vt 0.725281 0.088744
vt 0.000000 0.000000
vt 0.999054 0.474195
vt 0.888870 0.000000
vt 0.966318 0.160619
vt 1.000000 0.485435
vt 0.713925 0.713925
vt 0.507601 0.440704
vt 0.724519 0.162230
vt 1.000000 0.331615
vt 0.737409 0.119561
vt 0.639514 0.191406
vt 0.650865 0.203951
vt 0.655513 0.202393
vt 1.000000 0.111130
vt 0.762557 0.192037
vt 0.452559 0.229572
vt 0.558098 0.342459
vt 0.782687 0.078731
vt 0.786432 0.066144
vt 1.000000 0.401206
vt 0.894901 0.792877
vn 0.9050 -0.3304 -0.2680
vn 0.7002 -0.6617 -0.2680
vn 0.6071 -0.7947 -0.0000
vn 0.3313 -0.9435 0.0000
vn 0.4713 -0.6617 0.5831
vn -0.7491 -0.1218 0.6511
vn 0.5646 0.4983 -0.6580
vn 0.0070 -0.7729 -0.6345
vn 0.0071 -0.7722 -0.6353
vn 0.4556 0.8329 0.3141
vn 0.4572 0.8358 0.3040
vn -0.9145 -0.3920 0.1000
vn -0.9136 -0.3956 0.0936
vn 0.0232 0.2952 -0.9552
vn -0.8969 0.4405 -0.0388
vn -0.8991 0.4365 -0.0335
vn 0.0381 0.2992 -0.9534
vn -0.7496 -0.1227 0.6504
vn 0.8026 -0.1256 0.5831
vn 0.0075 -0.7737 -0.6335
vn -0.7501 -0.1291 0.6486
vn 0.9822 -0.1876 0.0000
vn -0.7478 -0.1214 0.6527
vn 0.5346 -0.3304 0.7779
vn 0.6949 -0.4351 0.5726
vn 0.0052 -0.7756 -0.6312
vn 0.1024 -0.9435 0.3151
vn 0.9050 -0.3304 0.2680
vn 0.1876 -0.7947 0.5773
vn 0.7002 -0.6617 0.2680
vn 0.0259 0.2946 -0.9553
vn 0.0072 -0.7722 -0.6353
vn 0.4558 0.8328 0.3141
vn 0.4557 0.8327 0.3145
vn 0.4556 0.8328 0.3144
vn 0.0259 0.2945 -0.9553
usemtl Material
s off
f 2/1/1 45/2/1 48/3/1
f 47/4/2 45/2/2 2/1/2
f 56/5/3 54/6/3 2/1/3
f 1/7/4 59/8/4 55/9/4
f 33/10/5 36/11/5 24/12/5
f 67/13/6 37/14/6 65/15/6
f 3/16/7 50/17/7 52/18/7
f 5/19/8 27/20/8 8/21/8
f 17/22/9 25/23/9 5/24/9
f 14/25/10 49/26/10 4/27/10
f 49/28/11 3/29/11 4/27/11
f 9/30/12 6/31/12 8/32/12
f 6/33/13 5/19/13 8/32/13
f 6/33/14 4/34/14 5/35/14
f 6/33/15 7/36/15 4/37/15
f 6/33/16 9/38/16 7/39/16
f 52/40/17 51/41/17 3/42/17
f 67/43/18 9/38/18 8/32/18
f 42/44/19 10/45/19 11/46/19
f 30/47/20 60/48/20 8/49/20
f 61/50/21 58/51/21 8/32/21
f 43/52/22 2/1/22 22/53/22
f 62/54/23 7/39/23 65/55/23
f 64/56/24 11/46/24 33/10/24
f 53/57/25 12/58/25 13/59/25
f 60/60/26 61/61/26 8/49/26
f 31/62/27 59/63/27 29/64/27
f 15/65/28 43/52/28 10/45/28
f 38/66/29 1/67/29 66/68/29
f 24/69/30 2/1/30 15/65/30
f 3/42/31 19/70/31 17/71/31
f 47/4/2 46/72/2 45/2/2
f 47/4/3 2/1/3 54/6/3
f 2/1/3 1/7/3 56/5/3
f 1/7/3 55/9/3 56/5/3
f 66/68/5 1/67/5 36/11/5
f 1/67/5 24/12/5 36/11/5
f 24/12/5 64/56/5 33/10/5
f 7/39/6 9/30/6 65/15/6
f 9/30/6 67/13/6 65/15/6
f 5/19/8 25/73/8 27/20/8
f 17/22/32 18/74/32 25/23/32
f 4/27/33 7/75/33 39/76/33
f 7/75/34 63/77/34 40/78/34
f 39/76/34 7/75/34 40/78/34
f 39/76/35 14/25/35 4/27/35
f 49/28/11 50/79/11 3/29/11
f 8/32/18 58/80/18 28/81/18
f 28/81/18 67/43/18 8/32/18
f 42/44/19 41/82/19 10/45/19
f 8/49/20 27/83/20 26/84/20
f 26/84/20 30/47/20 8/49/20
f 2/1/22 48/3/22 22/53/22
f 22/53/22 23/85/22 43/52/22
f 23/85/22 21/86/22 20/87/22
f 20/87/22 43/52/22 23/85/22
f 62/54/23 63/88/23 7/39/23
f 42/44/24 11/46/24 64/56/24
f 11/46/24 34/89/24 33/10/24
f 13/59/25 35/90/25 53/57/25
f 53/57/25 44/91/25 12/58/25
f 1/67/27 57/92/27 59/63/27
f 57/92/27 29/64/27 59/63/27
f 29/64/27 32/93/27 31/62/27
f 10/45/28 41/82/28 15/65/28
f 15/65/28 2/1/28 43/52/28
f 38/66/29 57/92/29 1/67/29
f 24/69/30 1/7/30 2/1/30
f 5/24/36 4/27/36 3/42/36
f 3/42/31 51/94/31 19/70/31
f 19/70/36 16/95/36 17/71/36
f 17/71/36 5/24/36 3/42/36
end