# Blender v2.90.0 OBJ File: ''
# www.blender.org
mtllib Asteroid1.mtl
o Asteroid_3.018_Icosphere_cell.063
v 0.952944 -0.197300 0.524443
v 0.884321 -0.072661 0.636488
v 0.945837 -1.041330 -0.096674
v -0.921608 -1.014717 -0.553971
v -1.041458 -0.510090 0.151447
v -0.707531 0.281578 -0.405680
v 0.973431 -1.011822 -0.117632
v 1.017645 -0.299486 0.351942
v 0.638863 0.581768 0.172669
v 0.105394 0.982609 0.327467
v -0.506117 -0.557491 0.660828
v 0.148930 -1.533726 -0.241749
v 0.821327 0.182131 0.145468
v -0.773832 0.415321 -0.106544
v -0.760212 0.111748 0.605841
v -0.493790 0.767551 0.176420
v -0.182482 0.994940 0.151976
v -0.519186 0.746378 0.125481
v -0.165251 1.005259 0.127503
v 0.303026 1.173882 -0.163852
v 0.327126 1.024971 -0.436546
v -0.069790 0.467259 -0.866299
v -0.339428 0.287783 -0.837118
v 0.175705 0.491838 0.803146
v 0.575672 -0.741957 -0.910580
v 0.625769 -0.974539 -0.911499
v -0.721458 -0.835420 -0.782539
v 0.226711 -1.531157 -0.262160
v -0.883936 -0.949066 -0.630686
v 0.427734 0.806942 -0.454124
v 0.318132 1.161572 -0.120218
v 0.465876 0.121517 0.893177
v -0.467560 0.011228 0.861643
v -1.011639 -0.170460 0.278770
v -0.369234 -0.175051 0.903299
vt 0.000000 0.000000
vt 1.000000 0.000000
vt 1.000000 1.000000
vt 0.000000 0.000000
vt 1.000000 0.000000
vt 1.000000 1.000000
vt 0.000000 0.000000
vt 1.000000 0.000000
vt 0.000000 0.000000
vt 1.000000 1.000000
vt 0.000000 0.000000
vt 1.000000 0.000000
vt 1.000000 1.000000
vt 1.000000 1.000000
vt 0.000000 0.000000
vt 1.000000 1.000000
vt 0.000000 0.000000
vt 0.000000 0.000000
vt 1.000000 0.000000
vt 1.000000 1.000000
vt 0.000000 0.000000
vt 1.000000 0.000000
vt 0.000000 0.000000
vt 1.000000 0.000000
vt 1.000000 1.000000
vt 0.000000 0.000000
vt 1.000000 0.000000
vt 1.000000 0.000000
vt 1.000000 1.000000
vt 0.000000 0.000000
vt 1.000000 0.000000
vt 0.000000 0.000000
vt 1.000000 0.000000
vt 0.000000 0.000000
vt 1.000000 0.000000
vt 1.000000 1.000000
vt 0.000000 0.000000
vt 0.000000 0.000000
vt 1.000000 0.000000
vt 1.000000 1.000000
vt 0.000000 0.000000
vt 1.000000 0.000000
vt 0.000000 0.000000
vt 1.000000 0.000000
vt 1.000000 0.000000
vt 1.000000 1.000000
vt 1.000000 0.000000
vt 1.000000 1.000000
vt 0.000000 0.000000
vt 1.000000 1.000000
vt 1.000000 0.000000
vt 1.000000 0.000000
vt 0.000000 0.000000
vt 1.000000 0.000000
vt 1.000000 0.000000
vt 1.000000 1.000000
vt 1.000000 1.000000
vt 0.000000 0.000000
vt 0.000000 0.000000
vt 1.000000 0.000000
vt 1.000000 1.000000
vt 1.000000 0.000000
vt 1.000000 1.000000
vt 1.000000 1.000000
vt 1.000000 0.000000
vt 1.000000 1.000000
vt 0.000000 0.000000
vt 0.000000 0.000000
vt 1.000000 0.000000
vt 0.000000 0.000000
vt 0.000000 0.000000
vt 1.000000 0.000000
vt 0.000000 0.000000
vt 1.000000 0.000000
vt 1.000000 1.000000
vt 0.000000 0.000000
vt 1.000000 1.000000
vt 1.000000 0.000000
vt 1.000000 0.000000
vt 1.000000 1.000000
vt 1.000000 0.000000
vt 1.000000 1.000000
vt 1.000000 0.000000
vt 0.000000 0.000000
vt 0.000000 0.000000
vt 1.000000 0.000000
vt 1.000000 0.000000
vt 0.000000 0.000000
vt 1.000000 1.000000
vt 1.000000 0.000000
vt 0.000000 0.000000
vt 0.000000 0.000000
vn 0.2285 -0.5783 0.7832
vn 0.2242 -0.5780 0.7846
vn 0.2234 -0.5793 0.7839
vn -0.9364 0.1885 -0.2961
vn -0.9378 0.1904 -0.2904
vn -0.9363 0.1886 -0.2961
vn 0.7811 -0.3767 0.4980
vn 0.6031 0.5993 0.5264
vn 0.6015 0.5991 0.5285
vn 0.6029 0.5993 0.5266
vn -0.4931 -0.7451 0.4490
vn -0.4928 -0.7453 0.4491
vn -0.4933 -0.7450 0.4491
vn 0.9066 0.4102 0.0988
vn 0.9080 0.4089 0.0914
vn 0.9066 0.4101 0.0991
vn 0.2147 -0.5772 0.7879
vn 0.2160 -0.5808 0.7849
vn 0.9083 0.4086 0.0895
vn -0.8425 0.4896 0.2247
vn -0.8424 0.4897 0.2248
vn -0.8426 0.4894 0.2247
vn -0.3926 0.6111 0.6873
vn -0.3926 0.6114 0.6870
vn -0.3926 0.6110 0.6874
vn -0.5914 0.8054 -0.0399
vn -0.5884 0.8051 -0.0748
vn -0.5310 0.7294 -0.4313
vn -0.5311 0.7278 -0.4339
vn -0.5325 0.7255 -0.4360
vn -0.5296 0.7216 -0.4458
vn -0.5285 0.7212 -0.4478
vn -0.5294 0.7214 -0.4465
vn -0.3926 0.6097 0.6885
vn -0.3928 0.6098 0.6884
vn -0.0973 -0.0156 -0.9951
vn -0.0970 -0.0170 -0.9951
vn -0.0970 -0.0165 -0.9951
vn -0.1394 -0.7079 -0.6925
vn -0.1454 -0.7124 -0.6865
vn -0.1402 -0.7085 -0.6916
vn -0.1462 -0.7131 -0.6857
vn -0.1475 -0.7145 -0.6839
vn -0.1532 -0.7220 -0.6748
vn -0.4924 -0.7456 0.4490
vn 0.4853 0.2900 -0.8248
vn 0.4853 0.2902 -0.8248
vn 0.4851 0.2904 -0.8248
vn 0.8722 0.4577 -0.1728
vn 0.2145 -0.5768 0.7882
vn -0.6815 -0.2021 0.7034
vn -0.6830 -0.2018 0.7020
vn -0.6821 -0.2022 0.7027
vn -0.3927 0.6094 0.6888
vn -0.0559 0.1935 0.9795
vn -0.0556 0.1909 0.9800
vn -0.0560 0.1942 0.9794
vn 0.6008 0.5992 0.5291
vn -0.6844 -0.2024 0.7005
vn -0.6844 -0.2025 0.7004
vn -0.1464 0.9403 0.3073
vn -0.1469 0.9403 0.3070
vn -0.1381 0.9405 0.3105
vn -0.1644 0.9450 0.2827
vn 0.4857 0.2895 -0.8248
vn 0.9022 0.2043 -0.3798
vn 0.9022 0.2031 -0.3804
vn 0.9014 0.1990 -0.3846
vn 0.9016 0.1962 -0.3855
vn 0.9016 0.1957 -0.3857
vn 0.5862 -0.7557 -0.2922
vn 0.5849 -0.7568 -0.2918
vn 0.5854 -0.7564 -0.2919
vn -0.9381 0.1907 -0.2890
vn -0.9379 0.1904 -0.2899
vn 0.5834 -0.7581 -0.2913
vn -0.8408 0.4980 0.2122
vn -0.7433 0.2222 -0.6310
vn -0.7436 0.2221 -0.6306
vn -0.7439 0.2220 -0.6304
vn -0.7441 0.2219 -0.6301
vn 0.7651 -0.3858 0.5155
vn 0.8953 0.4190 -0.1510
vn 0.8925 0.4232 -0.1559
vn 0.8924 0.4233 -0.1566
vn 0.6031 0.5994 0.5262
vn -0.8423 0.4898 0.2248
vn -0.5344 0.7208 -0.4414
vn 0.8953 0.4191 -0.1510
vn 0.9066 0.4102 0.0990
vn -0.0556 0.1899 0.9802
vn 0.8917 0.4242 -0.1578
vn -0.0973 -0.0154 -0.9951
vn -0.0974 -0.0155 -0.9951
vn 0.2143 -0.5766 0.7884
vn -0.6812 -0.2022 0.7036
vn 0.6005 0.5992 0.5295
vn -0.1347 0.9405 0.3120
vn 0.2231 -0.5898 0.7761
vn -0.5352 0.7206 -0.4408
vn 0.9026 0.2059 -0.3780
vn -0.9357 0.1886 -0.2981
usemtl Material.001
s 1
f 1/1/1 2/2/2 3/3/3
f 4/4/4 5/5/5 6/6/6
f 7/7/7 8/8/7 3/3/7
f 9/9/8 10/10/9 2/11/10
f 4/4/11 11/12/12 5/13/13
f 1/1/14 8/8/15 9/14/16
f 3/15/3 11/16/17 12/17/18
f 8/18/15 13/19/19 9/14/16
f 14/20/20 15/21/21 16/22/22
f 10/23/23 17/24/24 16/25/25
f 17/26/26 18/27/26 16/25/26
f 17/26/27 19/28/27 18/29/27
f 19/30/28 20/31/29 18/29/30
f 20/32/29 21/33/31 18/29/30
f 21/34/31 22/35/32 23/36/33
f 24/37/34 16/25/25 15/21/35
f 25/38/36 26/39/37 27/40/38
f 26/41/39 28/42/40 27/40/41
f 28/43/40 29/44/42 27/40/41
f 28/43/40 4/45/43 29/46/42
f 28/43/44 12/47/44 4/48/44
f 12/17/45 11/12/12 4/48/11
f 30/49/46 22/35/47 21/50/48
f 20/32/49 31/51/49 21/50/49
f 2/11/2 32/52/50 11/16/17
f 33/53/51 15/54/52 11/16/53
f 33/53/54 24/55/34 15/56/35
f 33/53/55 32/52/56 24/57/57
f 32/58/58 2/2/10 10/10/9
f 11/59/53 34/60/59 5/13/60
f 20/32/61 17/24/62 10/10/63
f 20/32/64 19/28/64 17/61/64
f 30/49/46 25/62/65 22/63/47
f 30/49/66 8/8/67 25/64/68
f 7/7/69 26/39/70 25/64/68
f 7/7/71 3/65/72 26/66/73
f 5/67/5 34/60/74 14/20/75
f 3/15/72 28/42/76 26/66/73
f 16/68/77 18/27/77 14/20/77
f 23/69/33 18/70/30 21/34/31
f 23/71/78 27/72/79 6/6/80
f 27/73/79 29/44/81 6/6/80
f 8/18/82 1/74/82 3/3/82
f 9/9/83 30/75/84 31/76/85
f 9/9/8 31/51/86 10/10/9
f 3/15/3 2/2/2 11/16/17
f 14/20/20 34/77/87 15/21/21
f 24/37/34 10/78/23 16/25/25
f 11/59/53 15/54/52 34/60/59
f 23/69/33 6/6/88 18/70/30
f 9/9/83 13/19/89 30/75/84
usemtl seshawns_extra_colours_that_he_wanted
f 1/1/14 9/79/16 2/80/90
f 33/53/55 35/81/91 32/82/56
f 31/76/85 30/83/84 21/50/92
f 25/62/36 23/36/93 22/84/94
f 32/58/50 35/81/95 11/16/17
f 35/85/96 33/86/51 11/16/53
f 32/58/58 10/78/9 24/57/97
f 31/76/98 20/31/61 10/10/63
f 8/18/67 7/87/69 25/64/68
f 6/88/6 5/5/5 14/20/75
f 3/15/99 12/47/99 28/89/99
f 18/70/30 6/90/88 14/20/100
f 13/91/101 8/8/67 30/75/66
f 29/92/102 4/45/4 6/6/6
f 25/62/36 27/72/38 23/36/93
end