# Blender v2.91.2 OBJ File: 'Kamikazi2.blend'
# www.blender.org
mtllib Kamikazi.mtl
o Cube
v -0.453268 0.130460 1.919838
v -0.453268 -1.000000 1.919838
v -2.126793 -0.074064 3.014970
v -2.126793 -1.000000 3.014970
v -1.389599 -0.618151 4.141514
v -1.389599 0.804539 4.141514
v 0.283926 -0.251389 3.046382
v 0.283926 -0.618151 3.046382
v 0.387335 -0.233698 5.266463
v 0.387335 0.420086 5.266463
v 0.465938 -0.251389 3.482019
v 0.465938 -0.618151 3.482019
v 0.396620 -0.233698 6.892883
v 0.396620 0.420086 6.892883
v 1.114717 -0.251389 4.709976
v 1.114717 -0.618151 4.709976
v 2.804697 -0.618151 6.943955
v 2.804697 -0.494748 6.943955
v 1.673119 0.593242 5.294855
v 1.673119 -0.618151 5.294855
v 3.931720 -0.618151 6.040640
v 3.931720 -0.494748 6.040640
v 2.178664 0.593242 5.077937
v 2.178664 -0.618151 5.077937
v 4.443061 -0.618151 5.014049
v 4.443061 -0.494748 5.014049
v 2.482092 0.593242 4.620856
v 2.482092 -0.618151 4.620856
v 4.605769 -0.618151 4.082473
v 4.605769 -0.494748 4.082473
v 2.606163 0.593242 4.122178
v 2.606163 -0.618151 4.122178
v 4.591193 -0.618151 3.348383
v 4.591193 -0.494748 3.348383
v 2.591587 0.593242 3.388088
v 2.591587 -0.618151 3.388088
v -3.693251 -1.000000 1.765398
v 1.486161 0.029582 1.553648
v -3.693251 0.286322 1.765398
v 1.486161 -1.000000 1.553648
v -5.595005 -0.336464 2.110436
v -5.615691 -0.336464 4.279484
v -5.615691 0.749178 4.279484
v -5.595005 0.964028 2.110436
v -0.229532 0.292087 1.646291
v -6.135027 -1.071138 1.375796
v -6.169725 -1.071138 5.014125
v -6.169725 1.414679 5.014125
v -6.135027 1.775065 1.375796
v -6.140497 -0.497598 1.949309
v -6.164256 -0.497598 4.440612
v -6.164256 0.895141 4.440612
v -6.140497 1.141911 1.949309
v 0.145102 -0.618151 4.882017
v 0.145102 0.804539 4.882017
v 0.158777 -0.618151 7.277329
v 0.158777 0.804539 7.277329
v 0.146266 -0.414299 5.085865
v 0.146266 0.600688 5.085865
v 0.157613 -0.414299 7.073481
v 0.157613 0.600688 7.073481
v -0.453268 0.130460 -1.919838
v -0.453268 -1.000000 -1.919838
v -2.126793 -0.074064 -3.014970
v -2.126793 -1.000000 -3.014970
v -5.906346 -1.000000 0.000000
v 4.226191 -0.112938 0.000000
v -7.366261 2.355635 0.000000
v 4.226191 -1.000000 0.000000
v -0.549608 2.430559 0.000000
v -1.389599 -0.618151 -4.141514
v -1.389599 0.804539 -4.141514
v 0.283926 -0.251389 -3.046382
v 0.283926 -0.618151 -3.046382
v 0.387335 -0.233698 -5.266463
v 0.387335 0.420086 -5.266463
v 0.465938 -0.251389 -3.482019
v 0.465938 -0.618151 -3.482019
v 0.396620 -0.233698 -6.892883
v 0.396620 0.420086 -6.892883
v 1.114717 -0.251389 -4.709976
v 1.114717 -0.618151 -4.709976
v 2.804697 -0.618151 -6.943955
v 2.804697 -0.494748 -6.943955
v 1.673119 0.593242 -5.294855
v 1.673119 -0.618151 -5.294855
v 3.931720 -0.618151 -6.040640
v 3.931720 -0.494748 -6.040640
v 2.178664 0.593242 -5.077937
v 2.178664 -0.618151 -5.077937
v 4.443061 -0.618151 -5.014049
v 4.443061 -0.494748 -5.014049
v 2.482092 0.593242 -4.620856
v 2.482092 -0.618151 -4.620856
v 4.605769 -0.618151 -4.082473
v 4.605769 -0.494748 -4.082473
v 2.606163 0.593242 -4.122178
v 2.606163 -0.618151 -4.122178
v 4.591193 -0.618151 -3.348383
v 4.591193 -0.494748 -3.348383
v 2.591587 0.593242 -3.388088
v 2.591587 -0.618151 -3.388088
v -3.693251 -1.000000 -1.765398
v 1.486161 0.029582 -1.553648
v -3.693251 0.286322 -1.765398
v 1.486161 -1.000000 -1.553648
v -5.595005 -0.336464 -2.110436
v -5.615691 -0.336464 -4.279484
v -5.615691 0.749178 -4.279484
v -5.595005 0.964028 -2.110436
v -0.229532 0.292087 -1.646291
v -6.135027 -1.071138 -1.375796
v -6.169725 -1.071138 -5.014125
v -6.169725 1.414679 -5.014125
v -6.135027 1.775065 -1.375796
v -6.140497 -0.497598 -1.949309
v -6.164256 -0.497598 -4.440612
v -6.164256 0.895141 -4.440612
v -6.140497 1.141911 -1.949309
v 0.145102 -0.618151 -4.882017
v 0.145102 0.804539 -4.882017
v 0.158777 -0.618151 -7.277329
v 0.158777 0.804539 -7.277329
v 0.146266 -0.414299 -5.085865
v 0.146266 0.600688 -5.085865
v 0.157613 -0.414299 -7.073481
v 0.157613 0.600688 -7.073481
vt 0.625000 0.750000
vt 0.656706 0.726477
vt 0.875000 0.698193
vt 0.375000 0.750000
vt 0.375000 0.750000
vt 0.125000 0.698193
vt 0.125000 0.750000
vt 0.625000 0.698193
vt 0.375000 0.698193
vt 0.625000 0.051807
vt 0.375000 0.125000
vt 0.375000 0.051807
vt 0.125000 0.750000
vt 0.375000 0.750000
vt 0.125000 0.750000
vt 0.375000 0.000000
vt 0.625000 0.000000
vt 0.625000 0.000000
vt 0.625000 0.750000
vt 0.375000 0.000000
vt 0.625000 0.000000
vt 0.125000 0.750000
vt 0.375000 0.750000
vt 0.125000 0.750000
vt 0.375000 0.750000
vt 0.625000 0.750000
vt 0.625000 0.750000
vt 0.375000 0.750000
vt 0.625000 0.750000
vt 0.875000 0.750000
vt 0.375000 0.000000
vt 0.625000 0.000000
vt 0.625000 0.000000
vt 0.875000 0.750000
vt 0.625000 0.750000
vt 0.625000 0.750000
vt 0.875000 0.750000
vt 0.375000 0.000000
vt 0.625000 0.000000
vt 0.125000 0.750000
vt 0.125000 0.750000
vt 0.375000 0.750000
vt 0.125000 0.750000
vt 0.375000 0.000000
vt 0.625000 0.000000
vt 0.375000 0.750000
vt 0.875000 0.750000
vt 0.625000 0.750000
vt 0.625000 0.750000
vt 0.875000 0.750000
vt 0.375000 0.000000
vt 0.625000 0.000000
vt 0.375000 1.000000
vt 0.375000 0.750000
vt 0.375000 0.000000
vt 0.625000 0.000000
vt 0.125000 0.750000
vt 0.125000 0.750000
vt 0.125000 0.698193
vt 0.125000 0.625000
vt 0.375000 0.051807
vt 0.625000 0.051807
vt 0.875000 0.750000
vt 0.875000 0.750000
vt 0.375000 0.000000
vt 0.625000 0.125000
vt 0.875000 0.750000
vt 0.875000 0.750000
vt 0.375000 0.000000
vt 0.625000 1.000000
vt 0.375000 0.000000
vt 0.625000 0.625000
vt 0.375000 0.625000
vt 0.875000 0.698193
vt 0.625000 0.000000
vt 0.750000 0.625000
vt 0.426859 0.043641
vt 0.431052 0.008166
vt 0.568856 0.008166
vt 0.573053 0.043641
vt 0.446471 0.010461
vt 0.553394 0.010461
vt 0.558144 0.041346
vt 0.441724 0.041346
vt 0.410821 0.000000
vt 0.589179 0.000000
vt 0.589179 0.000000
vt 0.410821 0.000000
vt 0.442557 0.000000
vt 0.442557 0.000000
vt 0.557443 0.000000
vt 0.557443 0.000000
vt 0.625000 0.750000
vt 0.875000 0.698193
vt 0.656706 0.726477
vt 0.375000 0.750000
vt 0.375000 0.750000
vt 0.125000 0.698193
vt 0.125000 0.750000
vt 0.625000 0.698193
vt 0.375000 0.698193
vt 0.625000 0.051807
vt 0.375000 0.051807
vt 0.125000 0.750000
vt 0.125000 0.750000
vt 0.375000 0.750000
vt 0.375000 0.000000
vt 0.625000 0.000000
vt 0.625000 0.000000
vt 0.625000 0.750000
vt 0.375000 0.000000
vt 0.625000 0.000000
vt 0.125000 0.750000
vt 0.125000 0.750000
vt 0.375000 0.750000
vt 0.375000 0.750000
vt 0.625000 0.750000
vt 0.625000 0.750000
vt 0.375000 0.750000
vt 0.625000 0.750000
vt 0.875000 0.750000
vt 0.375000 0.000000
vt 0.625000 0.000000
vt 0.625000 0.000000
vt 0.875000 0.750000
vt 0.625000 0.750000
vt 0.625000 0.750000
vt 0.875000 0.750000
vt 0.375000 0.000000
vt 0.625000 0.000000
vt 0.125000 0.750000
vt 0.125000 0.750000
vt 0.125000 0.750000
vt 0.375000 0.750000
vt 0.375000 0.000000
vt 0.625000 0.000000
vt 0.375000 0.750000
vt 0.875000 0.750000
vt 0.625000 0.750000
vt 0.625000 0.750000
vt 0.875000 0.750000
vt 0.375000 0.000000
vt 0.625000 0.000000
vt 0.375000 0.750000
vt 0.375000 1.000000
vt 0.375000 0.000000
vt 0.625000 0.000000
vt 0.125000 0.750000
vt 0.125000 0.698193
vt 0.125000 0.750000
vt 0.625000 0.051807
vt 0.375000 0.051807
vt 0.875000 0.750000
vt 0.875000 0.750000
vt 0.375000 0.000000
vt 0.875000 0.750000
vt 0.875000 0.750000
vt 0.375000 0.000000
vt 0.625000 1.000000
vt 0.375000 0.000000
vt 0.875000 0.698193
vt 0.625000 0.000000
vt 0.426859 0.043641
vt 0.431052 0.008166
vt 0.568856 0.008166
vt 0.573053 0.043641
vt 0.446471 0.010461
vt 0.553394 0.010461
vt 0.558144 0.041346
vt 0.441724 0.041346
vt 0.410821 0.000000
vt 0.589179 0.000000
vt 0.589179 0.000000
vt 0.410821 0.000000
vt 0.442557 0.000000
vt 0.442557 0.000000
vt 0.557443 0.000000
vt 0.557443 0.000000
vt 0.875000 0.750000
vt 0.875000 0.625000
vt 0.875000 0.750000
vn 0.0164 0.8549 0.5185
vn 0.8368 0.0000 -0.5476
vn 0.0000 -1.0000 0.0000
vn 0.1855 0.0000 0.9826
vn -0.6236 0.0000 0.7817
vn 0.1494 -0.9621 0.2283
vn -0.8368 0.0000 0.5476
vn 0.9227 0.0000 -0.3855
vn -0.4346 0.0000 0.9006
vn 0.8842 0.0000 -0.4671
vn -0.3943 0.0000 -0.9190
vn 0.7233 0.0000 -0.6905
vn -0.5374 0.6905 -0.4841
vn 0.1250 0.0000 0.9922
vn 0.3992 0.8777 0.2650
vn 0.1912 0.8745 0.4457
vn 0.6254 0.0000 0.7803
vn 0.8951 0.0000 0.4458
vn -0.8331 0.0000 -0.5531
vn 0.4778 0.8784 -0.0095
vn -0.9704 0.0000 -0.2414
vn 0.4641 0.8782 0.1155
vn 0.9851 0.0000 0.1721
vn -0.0199 0.0000 -0.9998
vn 0.9998 0.0000 -0.0199
vn -0.9998 0.0000 0.0199
vn 0.0291 -0.9996 0.0003
vn 0.1576 0.0000 -0.9875
vn 0.2992 0.9488 -0.1014
vn 0.4433 0.0000 0.8964
vn 0.0355 0.9712 0.2356
vn -0.5230 -0.2275 0.8214
vn 0.0647 0.7659 -0.6397
vn 0.7362 0.6767 -0.0042
vn 0.2616 0.7984 -0.5423
vn 0.4519 0.8551 0.2541
vn 0.0109 -0.9998 -0.0136
vn 0.4932 0.0000 0.8699
vn 0.5080 0.8567 0.0897
vn 0.1530 0.7909 0.5925
vn 0.0262 0.6123 0.7902
vn -1.0000 0.0000 -0.0095
vn -0.2826 0.9592 -0.0027
vn -0.2818 0.0000 -0.9595
vn -0.2825 -0.9543 -0.0972
vn -0.2833 0.0000 0.9590
vn -1.0000 0.0000 0.0057
vn -0.5996 0.0000 0.8003
vn -0.6029 0.0000 -0.7978
vn -0.6012 -0.7991 0.0034
vn -0.6012 0.7991 0.0034
vn 0.0164 0.8549 -0.5185
vn 0.8368 0.0000 0.5476
vn 0.1855 0.0000 -0.9826
vn -0.6236 0.0000 -0.7817
vn 0.1494 -0.9621 -0.2283
vn -0.8368 0.0000 -0.5476
vn 0.9227 0.0000 0.3855
vn -0.4346 0.0000 -0.9006
vn 0.8842 0.0000 0.4671
vn -0.3943 0.0000 0.9190
vn 0.7233 0.0000 0.6905
vn -0.5374 0.6905 0.4841
vn 0.1250 0.0000 -0.9922
vn 0.3992 0.8777 -0.2650
vn 0.1912 0.8745 -0.4457
vn 0.6254 0.0000 -0.7803
vn 0.8951 0.0000 -0.4458
vn -0.8331 0.0000 0.5531
vn 0.4778 0.8784 0.0095
vn -0.9704 0.0000 0.2414
vn 0.4641 0.8782 -0.1155
vn 0.9851 0.0000 -0.1721
vn -0.0199 0.0000 0.9998
vn 0.9998 0.0000 0.0199
vn -0.9998 0.0000 -0.0199
vn 0.0291 -0.9996 -0.0003
vn 0.1576 0.0000 0.9875
vn 0.2992 0.9488 0.1014
vn 0.4433 0.0000 -0.8964
vn 0.0355 0.9712 -0.2356
vn -0.5230 -0.2275 -0.8214
vn 0.0647 0.7659 0.6397
vn 0.7362 0.6767 0.0042
vn 0.2616 0.7984 0.5423
vn 0.4519 0.8551 -0.2541
vn 0.0109 -0.9998 0.0136
vn 0.4932 0.0000 -0.8699
vn 0.5080 0.8567 -0.0897
vn 0.1530 0.7909 -0.5925
vn 0.0262 0.6123 -0.7902
vn -1.0000 0.0000 0.0095
vn -0.2826 0.9592 0.0027
vn -0.2818 0.0000 0.9595
vn -0.2825 -0.9543 0.0972
vn -0.2833 0.0000 -0.9590
vn -1.0000 0.0000 -0.0057
vn -0.5996 0.0000 -0.8003
vn -0.6029 0.0000 0.7978
vn -0.6012 -0.7991 -0.0034
vn -0.6012 0.7991 -0.0034
vn 0.1363 0.6171 0.7750
vn 0.3764 0.7068 0.5990
vn 0.1363 0.6171 -0.7750
vn 0.3764 0.7068 -0.5990
vn 0.4395 0.8712 0.2189
vn 0.3174 0.8617 0.3959
vn 0.4775 0.8746 0.0834
vn -0.0071 0.6417 0.7669
vn 0.4395 0.8712 -0.2189
vn 0.3174 0.8617 -0.3959
vn 0.4775 0.8746 -0.0834
vn -0.0071 0.6417 -0.7669
vn 0.0668 0.9574 0.2808
vn 0.6611 0.6640 -0.3493
vn 0.4365 0.8810 -0.1824
vn 0.0668 0.9574 -0.2808
vn 0.6611 0.6640 0.3493
vn 0.4365 0.8810 0.1824
usemtl Material
s off
f 1/1/1 45/2/1 39/3/1
f 1/1/2 8/4/2 2/5/2
f 37/6/3 2/5/3 4/7/3
f 38/8/4 2/5/4 40/9/4
f 39/10/5 66/11/5 37/12/5
f 5/13/3 12/14/3 54/15/3
f 4/7/6 8/4/6 5/13/6
f 4/16/7 6/17/7 3/18/7
f 7/19/8 12/14/8 8/4/8
f 5/20/9 55/21/9 6/17/9
f 56/22/3 20/23/3 17/24/3
f 54/15/3 16/25/3 56/22/3
f 11/26/10 16/25/10 12/14/10
f 19/27/11 24/28/11 20/23/11
f 15/29/12 20/23/12 16/25/12
f 57/30/13 19/27/13 15/29/13
f 56/31/14 18/32/14 57/33/14
f 22/34/15 27/35/15 23/36/15
f 18/37/16 23/36/16 19/27/16
f 17/38/17 22/39/17 18/32/17
f 17/24/3 24/28/3 21/40/3
f 25/41/3 32/42/3 29/43/3
f 21/44/18 26/45/18 22/39/18
f 21/40/3 28/46/3 25/41/3
f 23/36/19 28/46/19 24/28/19
f 30/47/20 35/48/20 31/49/20
f 27/35/21 32/42/21 28/46/21
f 26/50/22 31/49/22 27/35/22
f 25/51/23 30/52/23 26/45/23
f 35/48/24 33/53/24 36/54/24
f 29/55/25 34/56/25 30/52/25
f 32/42/3 33/57/3 29/43/3
f 31/49/26 36/54/26 32/42/26
f 37/6/27 47/58/27 46/59/27
f 66/60/3 40/9/3 37/6/3
f 39/10/28 46/61/28 49/62/28
f 39/3/29 48/63/29 3/64/29
f 3/18/30 47/65/30 4/16/30
f 39/3/31 3/64/31 1/1/31
f 1/1/2 7/19/2 8/4/2
f 37/6/3 40/9/3 2/5/3
f 38/8/4 1/1/4 2/5/4
f 39/10/32 68/66/32 66/11/32
f 5/13/3 8/4/3 12/14/3
f 4/7/6 2/5/6 8/4/6
f 3/64/33 6/67/33 7/19/33
f 4/16/7 5/20/7 6/17/7
f 55/68/34 57/30/34 15/29/34
f 7/19/8 11/26/8 12/14/8
f 6/67/35 55/68/35 11/26/35
f 5/20/9 54/69/9 55/21/9
f 56/22/3 16/25/3 20/23/3
f 54/15/3 12/14/3 16/25/3
f 11/26/10 15/29/10 16/25/10
f 19/27/11 23/36/11 24/28/11
f 15/29/12 19/27/12 20/23/12
f 57/30/36 18/37/36 19/27/36
f 56/31/14 17/38/14 18/32/14
f 17/38/17 21/44/17 22/39/17
f 17/24/3 20/23/3 24/28/3
f 25/41/3 28/46/3 32/42/3
f 21/44/18 25/51/18 26/45/18
f 21/40/3 24/28/3 28/46/3
f 23/36/19 27/35/19 28/46/19
f 27/35/21 31/49/21 32/42/21
f 25/51/23 29/55/23 30/52/23
f 35/48/24 34/70/24 33/53/24
f 29/55/25 33/71/25 34/56/25
f 32/42/3 36/54/3 33/57/3
f 31/49/26 35/48/26 36/54/26
f 37/6/37 4/7/37 47/58/37
f 67/72/38 38/8/38 40/9/38
f 66/60/3 69/73/3 40/9/3
f 39/10/28 37/12/28 46/61/28
f 39/3/39 49/74/39 48/63/39
f 3/18/30 48/75/30 47/65/30
f 1/1/40 38/8/40 45/2/40
f 70/76/41 39/3/41 45/2/41
f 50/77/42 47/65/42 51/78/42
f 51/78/42 48/75/42 52/79/42
f 53/80/42 48/75/42 49/62/42
f 53/80/42 46/61/42 50/77/42
f 42/81/43 50/77/43 51/78/43
f 42/81/44 52/79/44 43/82/44
f 44/83/45 52/79/45 53/80/45
f 44/83/46 50/77/46 41/84/46
f 58/85/47 55/21/47 54/69/47
f 61/86/47 56/31/47 57/33/47
f 61/86/47 55/21/47 59/87/47
f 58/85/47 56/31/47 60/88/47
f 9/89/48 59/87/48 58/85/48
f 13/90/49 61/86/49 14/91/49
f 10/92/50 61/86/50 59/87/50
f 9/89/51 60/88/51 13/90/51
f 50/77/42 46/61/42 47/65/42
f 51/78/42 47/65/42 48/75/42
f 53/80/42 52/79/42 48/75/42
f 53/80/42 49/62/42 46/61/42
f 42/81/43 41/84/43 50/77/43
f 42/81/44 51/78/44 52/79/44
f 44/83/45 43/82/45 52/79/45
f 44/83/46 53/80/46 50/77/46
f 58/85/47 59/87/47 55/21/47
f 61/86/47 60/88/47 56/31/47
f 61/86/47 57/33/47 55/21/47
f 58/85/47 54/69/47 56/31/47
f 9/89/48 10/92/48 59/87/48
f 13/90/49 60/88/49 61/86/49
f 10/92/50 14/91/50 61/86/50
f 9/89/51 58/85/51 60/88/51
f 62/93/52 105/94/52 111/95/52
f 62/93/53 63/96/53 74/97/53
f 103/98/3 65/99/3 63/96/3
f 104/100/54 106/101/54 63/96/54
f 105/102/55 103/103/55 66/11/55
f 71/104/3 120/105/3 78/106/3
f 65/99/56 71/104/56 74/97/56
f 65/107/57 64/108/57 72/109/57
f 73/110/58 74/97/58 78/106/58
f 71/111/59 72/109/59 121/112/59
f 122/113/3 83/114/3 86/115/3
f 120/105/3 122/113/3 82/116/3
f 77/117/60 78/106/60 82/116/60
f 85/118/61 86/115/61 90/119/61
f 81/120/62 82/116/62 86/115/62
f 123/121/63 81/120/63 85/118/63
f 122/122/64 123/123/64 84/124/64
f 88/125/65 89/126/65 93/127/65
f 84/128/66 85/118/66 89/126/66
f 83/129/67 84/124/67 88/130/67
f 83/114/3 87/131/3 90/119/3
f 91/132/3 95/133/3 98/134/3
f 87/135/68 88/130/68 92/136/68
f 87/131/3 91/132/3 94/137/3
f 89/126/69 90/119/69 94/137/69
f 96/138/70 97/139/70 101/140/70
f 93/127/71 94/137/71 98/134/71
f 92/141/72 93/127/72 97/139/72
f 91/142/73 92/136/73 96/143/73
f 101/140/74 102/144/74 99/145/74
f 95/146/75 96/143/75 100/147/75
f 98/134/3 95/133/3 99/148/3
f 97/139/76 98/134/76 102/144/76
f 103/98/77 112/149/77 113/150/77
f 66/60/3 103/98/3 106/101/3
f 105/102/78 115/151/78 112/152/78
f 105/94/79 64/153/79 114/154/79
f 64/108/80 65/107/80 113/155/80
f 105/94/81 62/93/81 64/153/81
f 62/93/53 74/97/53 73/110/53
f 103/98/3 63/96/3 106/101/3
f 104/100/54 63/96/54 62/93/54
f 105/102/82 66/11/82 68/66/82
f 71/104/3 78/106/3 74/97/3
f 65/99/56 74/97/56 63/96/56
f 64/153/83 73/110/83 72/156/83
f 65/107/57 72/109/57 71/111/57
f 121/157/84 81/120/84 123/121/84
f 73/110/58 78/106/58 77/117/58
f 72/156/85 77/117/85 121/157/85
f 71/111/59 121/112/59 120/158/59
f 122/113/3 86/115/3 82/116/3
f 120/105/3 82/116/3 78/106/3
f 77/117/60 82/116/60 81/120/60
f 85/118/61 90/119/61 89/126/61
f 81/120/62 86/115/62 85/118/62
f 123/121/86 85/118/86 84/128/86
f 122/122/64 84/124/64 83/129/64
f 83/129/67 88/130/67 87/135/67
f 83/114/3 90/119/3 86/115/3
f 91/132/3 98/134/3 94/137/3
f 87/135/68 92/136/68 91/142/68
f 87/131/3 94/137/3 90/119/3
f 89/126/69 94/137/69 93/127/69
f 93/127/71 98/134/71 97/139/71
f 91/142/73 96/143/73 95/146/73
f 101/140/74 99/145/74 100/159/74
f 95/146/75 100/147/75 99/160/75
f 98/134/3 99/148/3 102/144/3
f 97/139/76 102/144/76 101/140/76
f 103/98/87 113/150/87 65/99/87
f 67/72/88 106/101/88 104/100/88
f 66/60/3 106/101/3 69/73/3
f 105/102/78 112/152/78 103/103/78
f 105/94/89 114/154/89 115/161/89
f 64/108/80 113/155/80 114/162/80
f 62/93/90 111/95/90 104/100/90
f 70/76/91 111/95/91 105/94/91
f 116/163/92 117/164/92 113/155/92
f 117/164/92 118/165/92 114/162/92
f 119/166/92 115/151/92 114/162/92
f 119/166/92 116/163/92 112/152/92
f 108/167/93 117/164/93 116/163/93
f 108/167/94 109/168/94 118/165/94
f 110/169/95 119/166/95 118/165/95
f 110/169/96 107/170/96 116/163/96
f 124/171/97 120/158/97 121/112/97
f 127/172/97 123/123/97 122/122/97
f 127/172/97 125/173/97 121/112/97
f 124/171/97 126/174/97 122/122/97
f 75/175/98 124/171/98 125/173/98
f 79/176/99 80/177/99 127/172/99
f 76/178/100 125/173/100 127/172/100
f 75/175/101 79/176/101 126/174/101
f 116/163/92 113/155/92 112/152/92
f 117/164/92 114/162/92 113/155/92
f 119/166/92 114/162/92 118/165/92
f 119/166/92 112/152/92 115/151/92
f 108/167/93 116/163/93 107/170/93
f 108/167/94 118/165/94 117/164/94
f 110/169/95 118/165/95 109/168/95
f 110/169/96 116/163/96 119/166/96
f 124/171/97 121/112/97 125/173/97
f 127/172/97 122/122/97 126/174/97
f 127/172/97 121/112/97 123/123/97
f 124/171/97 122/122/97 120/158/97
f 75/175/98 125/173/98 76/178/98
f 79/176/99 127/172/99 126/174/99
f 76/178/100 127/172/100 80/177/100
f 75/175/101 126/174/101 124/171/101
usemtl Material.001
f 70/76/102 45/2/102 38/8/102
f 38/8/103 67/72/103 70/76/103
f 70/76/104 104/100/104 111/95/104
f 104/100/105 70/76/105 67/72/105
usemtl Material.002
f 22/34/106 26/50/106 27/35/106
f 18/37/107 22/34/107 23/36/107
f 30/47/20 34/179/20 35/48/20
f 26/50/108 30/47/108 31/49/108
f 70/76/109 68/180/109 39/3/109
f 88/125/110 93/127/110 92/141/110
f 84/128/111 89/126/111 88/125/111
f 96/138/70 101/140/70 100/181/70
f 92/141/112 97/139/112 96/138/112
f 70/76/113 105/94/113 68/180/113
usemtl Material.003
f 3/64/114 7/19/114 1/1/114
f 55/68/115 15/29/115 11/26/115
f 6/67/116 11/26/116 7/19/116
f 67/72/38 40/9/38 69/73/38
f 43/82/42 41/84/42 42/81/42
f 13/90/47 10/92/47 9/89/47
f 43/82/42 44/83/42 41/84/42
f 13/90/47 14/91/47 10/92/47
f 64/153/117 62/93/117 73/110/117
f 121/157/118 77/117/118 81/120/118
f 72/156/119 73/110/119 77/117/119
f 67/72/88 69/73/88 106/101/88
f 109/168/92 108/167/92 107/170/92
f 79/176/97 75/175/97 76/178/97
f 109/168/92 107/170/92 110/169/92
f 79/176/97 76/178/97 80/177/97
