# Blender v2.91.2 OBJ File: 'Arrow.blend'
# www.blender.org
mtllib Arrow.mtl
o Cube_Cube.001
v -0.349728 -0.262712 2.490651
v -0.349728 0.262712 2.490651
v -1.000000 -0.438987 -3.881570
v -1.000000 0.438987 -3.881570
v 0.349728 -0.262712 2.490651
v 0.349728 0.262712 2.490651
v 1.000000 -0.438987 -3.881570
v 1.000000 0.438987 -3.881570
v -2.045815 -0.438987 -2.082402
v -2.045815 0.438987 -2.082402
v 2.045815 -0.438987 -2.082402
v 2.045815 0.438987 -2.082402
v 0.000000 -0.438987 -5.617063
v 0.000000 0.438987 -5.617063
v -0.644723 -0.438987 -2.082402
v -0.646281 0.438987 -2.082402
v 0.643225 -0.438987 -2.082402
v 0.643546 0.438987 -2.082402
vt 0.625000 0.192061
vt 0.375000 0.250000
vt 0.375000 0.192061
vt 0.625000 0.375000
vt 0.375000 0.500000
vt 0.375000 0.375000
vt 0.375000 0.581084
vt 0.125000 0.705208
vt 0.125000 0.581084
vt 0.625000 0.705208
vt 0.388972 0.957524
vt 0.375000 0.705208
vt 0.875000 0.705208
vt 0.625000 0.581084
vt 0.875000 0.581084
vt 0.625000 0.044792
vt 0.375000 0.168916
vt 0.375000 0.044792
vt 0.710679 0.557939
vt 0.625000 0.557939
vt 0.625000 0.500000
vt 0.625000 0.250000
vt 0.210607 0.557939
vt 0.125000 0.557939
vt 0.125000 0.500000
vt 0.375000 0.557939
vt 0.625000 0.168916
vt 0.611028 0.957524
vt 0.750000 0.500000
vt 0.875000 0.500000
vt 0.789488 0.557939
vt 0.875000 0.557939
vt 0.250000 0.500000
vt 0.289301 0.557939
vn -0.8646 0.0000 -0.5025
vn 0.8665 0.0000 -0.4993
vn 0.0000 -0.9993 0.0385
vn 0.0000 0.0000 1.0000
vn 0.0000 0.9993 0.0385
vn -0.9979 0.0000 0.0644
vn 0.0000 1.0000 -0.0000
vn -0.8665 0.0000 -0.4993
vn -0.0000 -1.0000 0.0000
vn 0.8646 0.0000 -0.5025
vn 0.9979 0.0000 0.0640
vn -0.9979 -0.0018 0.0646
vn 0.9979 -0.0004 0.0641
usemtl Material.001
s off
f 10/1/1 3/2/1 9/3/1
f 14/4/2 7/5/2 13/6/2
f 17/7/3 1/8/3 15/9/3
f 6/10/4 1/11/4 5/12/4
f 2/13/5 18/14/5 16/15/5
f 2/16/6 15/17/6 1/18/6
f 18/19/7 12/20/7 8/21/7
f 4/22/8 13/6/8 3/2/8
f 15/23/9 9/24/9 3/25/9
f 8/21/10 11/26/10 7/5/10
f 16/27/4 9/3/4 15/17/4
f 11/26/4 18/14/4 17/7/4
f 17/7/11 6/10/11 5/12/11
f 10/1/1 4/22/1 3/2/1
f 14/4/2 8/21/2 7/5/2
f 17/7/3 5/12/3 1/8/3
f 6/10/4 2/28/4 1/11/4
f 2/13/5 6/10/5 18/14/5
f 2/16/12 16/27/12 15/17/12
f 8/21/7 14/29/7 18/19/7
f 14/29/7 4/30/7 16/31/7
f 18/19/7 14/29/7 16/31/7
f 4/30/7 10/32/7 16/31/7
f 4/22/8 14/4/8 13/6/8
f 3/25/9 13/33/9 15/23/9
f 13/33/9 7/5/9 17/34/9
f 7/5/9 11/26/9 17/34/9
f 17/34/9 15/23/9 13/33/9
f 8/21/10 12/20/10 11/26/10
f 16/27/4 10/1/4 9/3/4
f 11/26/4 12/20/4 18/14/4
f 17/7/13 18/14/13 6/10/13
end